<svg width="63" height="79" viewBox="0 0 63 79" fill="none" xmlns="http://www.w3.org/2000/svg">
<rect width="63" height="63" rx="31.5" fill="#034023"/>
<path fill-rule="evenodd" clip-rule="evenodd" d="M28.6035 47.5736H29.9692C32.0765 44.2599 33.8542 40.6877 34.8667 36.9158C34.9609 36.5515 35.2081 35.0945 35.2905 34.8594C35.2905 34.8477 35.2905 34.8359 35.3023 34.8359V34.8594L33.5834 38.8194C32.9713 40.1237 32.2649 41.5103 31.5232 42.7911C30.8992 43.8839 29.7455 45.8345 28.6035 47.5736Z" fill="white"/>
<path fill-rule="evenodd" clip-rule="evenodd" d="M17.7359 42.1206C16.8176 44.5177 15.7345 45.587 13.3799 45.5988C13.3682 45.5988 12.756 45.5988 12.7324 45.5988V47.5729H25.1528C24.6583 46.8561 24.3993 45.3872 24.7761 44.4237L25.4 45.3637C24.7761 43.8479 24.8938 40.4637 25.8592 39.0419L26.3183 40.1935C26.3183 39.0654 26.8128 36.6565 28.0842 35.505L28.2373 36.21C28.8377 34.7882 29.0496 34.2947 29.9915 33.4721C28.5198 32.9198 27.4603 31.498 27.4603 29.8294C27.4603 27.6791 31.3571 21.1575 31.3571 21.1575C31.3571 21.1575 35.2539 27.6791 35.2539 29.8294C35.2539 30.2055 35.2068 30.558 35.1009 30.8987V30.9222C35.7837 29.3947 36.9728 29.0774 37.6791 28.9011C38.0559 29.6649 38.2089 30.652 38.1854 31.3335C38.1147 32.8258 37.7969 33.1901 37.5732 33.5779L38.5386 32.8846C39.0566 34.1419 38.4797 35.6695 37.8675 36.7505C38.2678 36.6683 38.4444 36.6213 38.8093 36.3393C38.6563 38.5249 38.362 38.9127 37.585 40.0525C37.9028 40.029 38.103 39.7587 38.3149 39.5472C38.3149 41.9561 37.5379 42.3791 36.5254 43.2721C37.114 43.2369 37.1847 43.2369 37.3613 43.1899C36.8433 46.7386 34.6182 47.5846 33.3467 47.5846H50.2643V45.6105H48.9105C47.6154 45.6105 46.6383 44.8115 46.1203 43.4601L33.4998 12.0625H29.2733L17.7359 42.1206Z" fill="white"/>
<path d="M33.1078 77.5023C32.321 78.32 31.0123 78.32 30.2255 77.5023L23.3786 70.3867C22.1559 69.1161 23.0564 67 24.8197 67L38.5136 67C40.2769 67 41.1774 69.1161 39.9548 70.3867L33.1078 77.5023Z" fill="#034023"/>
</svg>