<svg xmlns="http://www.w3.org/2000/svg">

  <!-- rotationСircle -->
  <symbol id="rotationСircle" viewBox="0 0 168 169">
    <path d="M157.51 107.009L159.177 101.156L153.589 99.5532L154.014 98.1144L166.235 101.581L165.811 103.019L160.484 101.515L158.817 107.369L164.144 108.873L163.719 110.312L151.497 106.845L151.922 105.407L157.51 107.009ZM166.235 92.5554C166.268 92.2284 166.301 91.9341 166.333 91.6398C166.333 91.3455 166.333 91.1166 166.333 90.9531L161.105 90.2991C161.105 90.2991 161.039 90.4626 161.039 90.5934C161.039 90.7242 161.007 90.855 160.974 91.0185C160.974 91.1493 160.941 91.3128 160.909 91.4436V91.7379C160.811 92.1303 160.811 92.5554 160.843 92.9805C160.843 93.4056 160.974 93.7653 161.138 94.125C161.301 94.4847 161.562 94.779 161.889 95.0079C162.249 95.2368 162.706 95.4003 163.262 95.4984C163.752 95.5638 164.177 95.4984 164.536 95.3676C164.896 95.2368 165.19 95.0079 165.418 94.7463C165.647 94.452 165.843 94.125 165.974 93.7653C166.105 93.4056 166.203 93.0132 166.235 92.6208V92.5554ZM167.641 89.6124C167.706 90.0702 167.706 90.5934 167.641 91.1166C167.641 91.6398 167.575 92.163 167.51 92.6862C167.444 93.2421 167.314 93.798 167.15 94.3539C166.954 94.9098 166.693 95.4003 166.366 95.8254C166.007 96.2505 165.582 96.5775 165.026 96.8064C164.471 97.0353 163.817 97.1007 163.033 97.0026C162.281 96.9045 161.628 96.6756 161.138 96.3486C160.647 96.0216 160.255 95.5965 159.994 95.0733C159.732 94.5828 159.536 94.0269 159.471 93.4056C159.406 92.7843 159.406 92.1957 159.471 91.5744V91.2801C159.471 91.2801 159.536 90.9858 159.569 90.855C159.569 90.6915 159.634 90.5607 159.667 90.4299C159.667 90.2991 159.732 90.201 159.732 90.1356L154.961 89.5143L155.157 88.0101L167.608 89.5797L167.641 89.6124ZM163.817 82.7781H165.255V82.7127L163.719 82.0587L154.733 76.5977L154.667 75.7148L167.314 74.7665L167.444 76.2707L158.752 76.9247H157.314V76.9901L158.85 77.6768L167.935 83.1378L168 84.0207L155.353 84.969L155.255 83.4648L163.817 82.8108V82.7781ZM155.157 64.7276L155.223 64.9565C155.223 64.9565 155.288 65.1527 155.321 65.2835C155.321 65.4143 155.386 65.5124 155.419 65.6105C155.451 65.7086 155.517 65.8067 155.55 65.9048L162.869 64.2044C162.869 64.2044 162.869 63.8774 162.804 63.6812C162.771 63.485 162.739 63.2888 162.706 63.1253C162.608 62.7329 162.445 62.3732 162.216 62.0462C161.987 61.7192 161.66 61.4903 161.268 61.2941C160.876 61.0979 160.419 60.9998 159.928 60.9671C159.406 60.9344 158.85 60.9671 158.196 61.1306C157.641 61.2614 157.151 61.4576 156.726 61.6865C156.301 61.9154 155.974 62.2097 155.713 62.504C155.451 62.831 155.288 63.158 155.19 63.5504C155.092 63.9101 155.092 64.3025 155.19 64.7276H155.157ZM163.556 66.8858C163.523 66.7223 163.458 66.4934 163.392 66.2645C163.327 66.0029 163.229 65.8067 163.131 65.6432L155.811 67.3436C155.811 67.3436 155.811 67.6379 155.876 67.8341C155.909 68.0303 155.942 68.2265 156.007 68.4227C156.105 68.8151 156.268 69.1748 156.497 69.5018C156.726 69.8288 157.053 70.0577 157.412 70.2539C157.804 70.4501 158.229 70.5482 158.752 70.6136C159.275 70.6463 159.863 70.6136 160.517 70.4501C161.072 70.3193 161.53 70.1558 161.954 69.9269C162.379 69.698 162.739 69.4364 163 69.1094C163.262 68.8151 163.458 68.4554 163.556 68.0957C163.654 67.736 163.654 67.3436 163.556 66.9185V66.8858ZM154.275 66.1664C154.21 65.9702 154.112 65.7413 154.046 65.4797C153.981 65.2181 153.916 64.9565 153.85 64.7276C153.72 64.1717 153.687 63.6158 153.785 63.0926C153.85 62.5694 154.046 62.0789 154.373 61.6211C154.7 61.1633 155.125 60.7709 155.713 60.4112C156.268 60.0515 156.987 59.7899 157.837 59.5937C158.621 59.3975 159.373 59.3321 160.059 59.3975C160.745 59.4629 161.334 59.6264 161.856 59.9207C162.379 60.215 162.804 60.5747 163.164 61.0652C163.523 61.5557 163.752 62.1116 163.915 62.7656C163.948 62.9291 163.981 63.1253 164.013 63.3542C164.046 63.5831 164.079 63.7793 164.079 63.9101L165.614 63.5504L165.941 65.0219L164.373 65.3816C164.471 65.5778 164.569 65.8067 164.667 66.101C164.732 66.3953 164.798 66.6242 164.863 66.8204C164.994 67.3763 165.026 67.9322 164.928 68.4554C164.83 68.9786 164.634 69.4691 164.307 69.9269C163.981 70.3847 163.523 70.7771 162.968 71.1368C162.379 71.4638 161.693 71.7581 160.876 71.9216C160.026 72.1178 159.275 72.1832 158.589 72.0851C157.902 71.987 157.314 71.8235 156.791 71.5292C156.268 71.2349 155.844 70.8425 155.517 70.3847C155.19 69.9269 154.961 69.371 154.831 68.7824C154.831 68.6516 154.765 68.4554 154.733 68.1938C154.7 67.9322 154.667 67.736 154.7 67.6052L152.935 67.9976L152.608 66.5261L154.34 66.1337L154.275 66.1664ZM154.602 50.3396L156.759 55.1138C157.412 54.7541 157.935 54.3617 158.36 53.9039C158.785 53.4788 159.079 52.9883 159.275 52.5305C159.471 52.04 159.536 51.5495 159.504 51.059C159.471 50.5685 159.34 50.0453 159.111 49.5548C158.883 49.0316 158.621 48.6065 158.36 48.2468C158.098 47.8871 157.837 47.6255 157.543 47.4293L158.458 46.579C158.817 46.8406 159.144 47.2004 159.504 47.6255C159.863 48.0833 160.157 48.6065 160.419 49.1624C160.745 49.8818 160.909 50.5685 160.974 51.2879C161.039 52.0073 160.909 52.6613 160.647 53.348C160.386 54.002 159.896 54.656 159.275 55.2446C158.621 55.8332 157.772 56.3891 156.693 56.8796C155.615 57.3701 154.635 57.6317 153.752 57.6971C152.87 57.7625 152.053 57.6317 151.367 57.3701C150.68 57.1085 150.06 56.6834 149.569 56.1275C149.079 55.5716 148.654 54.9503 148.328 54.2636C148.066 53.7077 147.903 53.2172 147.772 52.7594C147.641 52.3016 147.609 51.9092 147.576 51.5495L148.948 51.3533C148.948 51.6803 148.981 52.04 149.112 52.4978C149.21 52.9229 149.373 53.3807 149.569 53.8058C149.765 54.2309 150.027 54.656 150.386 55.0484C150.713 55.4408 151.138 55.7351 151.661 55.9313C152.151 56.1275 152.739 56.2583 153.425 56.2256C154.079 56.2256 154.831 56.0621 155.648 55.7351L153.491 50.9609L154.7 50.405L154.602 50.3396ZM143.72 34.807C143.164 35.2321 142.674 35.7226 142.282 36.2131C141.857 36.7036 141.563 37.2268 141.367 37.75C141.171 38.2732 141.106 38.7964 141.171 39.3196C141.236 39.8428 141.432 40.366 141.825 40.8565C142.511 41.7394 143.393 42.1645 144.472 42.1645C145.55 42.1645 146.759 41.5759 148.164 40.4968C148.72 40.0717 149.177 39.6139 149.602 39.0907C150.027 38.6002 150.321 38.077 150.517 37.5538C150.713 37.0306 150.778 36.5074 150.713 35.9515C150.648 35.4283 150.419 34.9051 150.06 34.4146C149.373 33.5317 148.491 33.1066 147.445 33.1393C146.367 33.1393 145.158 33.7279 143.753 34.8397L143.72 34.807ZM142.74 33.5644C144.406 32.2564 145.942 31.6024 147.38 31.6024C148.818 31.6024 150.06 32.2564 151.073 33.5644C151.628 34.2838 151.988 34.9705 152.151 35.6899C152.314 36.4093 152.282 37.096 152.118 37.7827C151.922 38.4694 151.595 39.1561 151.073 39.8101C150.582 40.4641 149.929 41.1181 149.145 41.7067C147.478 43.0147 145.942 43.6687 144.472 43.6687C143.034 43.6687 141.792 42.982 140.746 41.674C140.191 40.9873 139.864 40.2679 139.7 39.5812C139.537 38.8945 139.57 38.1751 139.766 37.4884C139.962 36.8017 140.289 36.115 140.812 35.461C141.302 34.807 141.955 34.153 142.74 33.5644V33.5644ZM142.805 26.305L140.06 23.689C138.295 25.3567 136.792 26.6974 135.55 27.7111C134.309 28.7248 133.23 29.4442 132.315 29.8039C131.727 30.0328 131.204 30.1309 130.747 30.0655C130.289 30.0001 129.93 29.8366 129.603 29.5423C129.439 29.3788 129.309 29.248 129.243 29.1172C129.145 28.9864 129.08 28.8556 129.015 28.6921L130.06 27.8746C130.06 27.8746 130.191 28.0708 130.289 28.1689C130.452 28.2997 130.616 28.3978 130.877 28.4305C131.106 28.4632 131.433 28.4305 131.825 28.2997C132.184 28.1689 132.577 27.9727 133.067 27.6784C133.557 27.3841 134.112 26.9917 134.766 26.4685C135.42 25.9453 136.171 25.2913 137.021 24.5065C137.87 23.7217 138.851 22.7734 139.929 21.6943L144.798 26.3377L136.04 35.5264L134.962 34.48L142.805 26.2723V26.305ZM128.688 28.0381C128.23 28.0381 127.74 27.94 127.217 27.7111C126.694 27.4822 126.172 27.1879 125.681 26.8282C125.06 26.4031 124.57 25.8799 124.178 25.2586C123.786 24.67 123.557 24.016 123.459 23.2966C123.361 22.5772 123.459 21.7924 123.688 20.9422C123.917 20.092 124.374 19.2091 125.028 18.2935C125.714 17.3125 126.433 16.5931 127.152 16.1026C127.904 15.612 128.622 15.3177 129.374 15.1869C130.093 15.0561 130.812 15.0888 131.498 15.285C132.184 15.4812 132.773 15.7428 133.328 16.1352C133.916 16.5604 134.374 16.9201 134.701 17.2471C135.027 17.5741 135.289 17.9011 135.485 18.1954L134.407 19.0783C134.112 18.4897 133.524 17.9011 132.642 17.2798C132.25 16.9855 131.792 16.7893 131.302 16.6585C130.812 16.5277 130.289 16.5277 129.734 16.6585C129.178 16.7566 128.622 17.0182 128.067 17.4433C127.479 17.8684 126.923 18.457 126.368 19.2418C125.877 19.9612 125.518 20.6479 125.322 21.3019C125.126 21.9559 125.06 22.5772 125.093 23.1658C125.159 23.7544 125.322 24.2776 125.616 24.7354C125.91 25.2259 126.302 25.6183 126.792 25.978C127.25 26.305 127.642 26.5339 128.034 26.6647C128.426 26.7955 128.786 26.8936 129.113 26.9263L128.72 28.1035L128.688 28.0381ZM116.629 15.5466L119.93 17.2471L120.453 13.1595L120.943 11.2302L119.636 12.7671L116.662 15.5466H116.629ZM119.734 18.6205L115.584 16.495L112.871 19.0456L111.532 18.3589L121.695 9.07203L122.316 9.39903L120.747 23.0677L119.342 22.3483L119.799 18.6205H119.734ZM110.845 8.97393L111.532 7.17542H111.434L110.29 8.64692L105.551 13.2576L105.127 13.1268L103.329 6.65222L103.166 4.82101H103.068L102.806 6.68492L100.486 14.8926L99.1138 14.5002L102.578 2.2704L103.656 2.56471L105.715 9.88953L105.911 11.4264H105.944L106.891 10.1838L112.283 5.01721L113.427 5.34421L109.963 17.5741L108.525 17.149L110.845 8.94123V8.97393ZM85.6829 0.144897L92.5781 0.668099L92.4801 2.0088L87.0881 1.5837L86.7613 5.73662L91.6958 6.09632L91.5977 7.43702L86.6633 7.07732L86.3365 11.5899L91.8265 12.015L91.7285 13.3557L84.7353 12.8325L85.6829 0.177598V0.144897ZM72.9057 7.20812C72.971 7.89482 73.0691 8.58153 73.2651 9.17013C73.4612 9.79143 73.7226 10.3146 74.0494 10.7724C74.3762 11.2302 74.7683 11.5899 75.2585 11.8188C75.716 12.0804 76.2715 12.1785 76.8924 12.1131C78.0035 12.015 78.8531 11.5245 79.4414 10.6416C80.0296 9.75873 80.2256 8.41802 80.0949 6.61952C80.0296 5.93282 79.9315 5.27881 79.7355 4.65751C79.5394 4.03621 79.278 3.51301 78.9512 3.05521C78.6244 2.59741 78.2323 2.2377 77.7421 2.0088C77.2519 1.7472 76.729 1.6491 76.0755 1.7145C74.9644 1.8126 74.1148 2.3031 73.5592 3.18601C73.0037 4.06891 72.7749 5.40961 72.9057 7.20812V7.20812ZM71.3044 7.33892C71.141 5.21341 71.4678 3.57841 72.2848 2.3685C73.1017 1.1586 74.3108 0.504599 75.9774 0.373798C76.8598 0.308398 77.644 0.373798 78.3303 0.668099C79.0165 0.9297 79.5721 1.3221 80.0622 1.878C80.5197 2.4339 80.9119 3.08791 81.1733 3.87271C81.4347 4.65751 81.5981 5.54042 81.6962 6.52142C81.8596 8.64693 81.5328 10.2819 80.7158 11.4918C79.8989 12.7017 78.6571 13.3557 76.9905 13.4865C76.1082 13.5519 75.3239 13.4865 74.6703 13.1922C74.0167 12.8979 73.4285 12.5382 72.971 11.9823C72.5135 11.4264 72.1214 10.7724 71.86 9.98763C71.5985 9.20283 71.4351 8.31992 71.3371 7.33892H71.3044ZM66.2393 9.10473L60.3898 10.7724L61.9911 16.3642L60.5532 16.7893L57.0893 4.55941L58.5271 4.13431L60.0303 9.46443L65.8798 7.79672L64.3766 2.4666L65.8144 2.0415L69.2784 14.2713L67.8405 14.6964L66.2393 9.10473ZM49.2791 9.00663C48.985 9.13743 48.7236 9.26823 48.4622 9.39903C48.2007 9.52983 48.0047 9.66063 47.874 9.75873L50.0307 14.5656C50.0307 14.5656 50.1941 14.5656 50.3248 14.5002L50.717 14.3367C50.717 14.3367 50.9784 14.2386 51.1091 14.1732L51.3706 14.0424C51.73 13.8789 52.0895 13.6827 52.4489 13.4211C52.7757 13.1922 53.0698 12.8979 53.2659 12.5709C53.462 12.2439 53.5927 11.8842 53.6254 11.4591C53.6254 11.034 53.56 10.5435 53.2986 10.0203C53.1025 9.56253 52.8411 9.23553 52.5143 9.00663C52.2202 8.77773 51.8607 8.64693 51.5013 8.58152C51.1418 8.51612 50.7497 8.54882 50.3902 8.61422C49.9981 8.67963 49.6386 8.81043 49.2791 8.97393V9.00663ZM46.044 9.33363C46.4034 9.03933 46.8282 8.77773 47.3184 8.51612C47.7759 8.25452 48.2661 8.02562 48.7236 7.82942C49.2138 7.60052 49.7693 7.40432 50.3248 7.27352C50.8804 7.14272 51.4686 7.11002 51.9914 7.17542C52.547 7.24082 53.0698 7.43702 53.5273 7.79672C54.0175 8.12372 54.4096 8.67963 54.7364 9.36633C55.0632 10.0857 55.1939 10.7397 55.1613 11.3283C55.1286 11.9169 54.9652 12.4728 54.6711 12.9633C54.377 13.4538 54.0175 13.8789 53.5273 14.2713C53.0372 14.631 52.5143 14.958 51.9588 15.2196L51.6973 15.3504C51.6973 15.3504 51.4359 15.4812 51.3052 15.5139C51.1745 15.5793 51.0111 15.612 50.8804 15.6774C50.7497 15.7101 50.6516 15.7428 50.5863 15.7755L52.5797 20.1574L51.2072 20.7787L46.044 9.33363V9.33363ZM42.6127 15.8409L41.9265 14.5656H41.8611L41.9918 16.266L41.4363 26.7955L40.6847 27.286L33.8222 16.5931L35.0967 15.7755L39.8024 23.1004L40.4559 24.3757H40.5213L40.3906 22.6426L40.8808 12.0477L41.6324 11.5572L48.4948 22.2502L47.2204 23.0677L42.58 15.8409H42.6127ZM31.1099 32.5507L31.2733 32.3872C31.2733 32.3872 31.4367 32.2237 31.502 32.1583C31.6001 32.0602 31.6654 31.9948 31.7308 31.8967C31.7961 31.7986 31.8615 31.7332 31.8942 31.6351L26.6983 26.1742C26.6983 26.1742 26.4369 26.3704 26.2735 26.5012C26.1101 26.632 25.9794 26.7628 25.8487 26.8936C25.5546 27.1879 25.3258 27.5149 25.1951 27.8746C25.0644 28.2343 24.999 28.6267 25.0317 29.0518C25.0644 29.4769 25.1951 29.9347 25.4238 30.3925C25.6526 30.8503 26.0121 31.3081 26.4369 31.7986C26.829 32.2237 27.2538 32.5507 27.6787 32.8123C28.1035 33.0739 28.4956 33.2047 28.9204 33.2701C29.3126 33.3355 29.7047 33.3028 30.0642 33.2047C30.4237 33.0739 30.7504 32.8777 31.0772 32.5834L31.1099 32.5507ZM28.6917 24.2122C28.6917 24.2122 28.4303 24.4738 28.2342 24.67C28.0381 24.8662 27.9074 25.0297 27.8421 25.1932L33.0379 30.6541C33.0379 30.6541 33.2667 30.4906 33.4301 30.3598C33.5935 30.229 33.7242 30.0982 33.8549 29.9674C34.149 29.6731 34.3777 29.3461 34.5411 28.9864C34.7045 28.6267 34.7372 28.2343 34.7372 27.8092C34.7372 27.3841 34.5738 26.9263 34.3451 26.4685C34.1163 26.0107 33.7895 25.5202 33.2994 25.0297C32.9072 24.6373 32.5151 24.3103 32.0903 24.0487C31.6654 23.7871 31.2733 23.6236 30.8485 23.5582C30.4563 23.4601 30.0642 23.4928 29.7047 23.5909C29.3453 23.689 29.0185 23.8852 28.6917 24.1795V24.2122ZM32.8092 32.5834C32.6785 32.7469 32.5151 32.9431 32.3517 33.1393C32.1556 33.3355 31.9922 33.5317 31.7961 33.6952C31.3713 34.0876 30.9465 34.3819 30.4237 34.5781C29.9335 34.7743 29.4106 34.8724 28.8551 34.807C28.2996 34.7743 27.744 34.5781 27.1558 34.2838C26.5676 33.9568 25.9794 33.499 25.3585 32.8777C24.803 32.2891 24.3781 31.6678 24.084 31.0465C23.7899 30.4252 23.6265 29.8366 23.5939 29.248C23.5939 28.6594 23.6592 28.0708 23.9206 27.5476C24.1494 26.9917 24.5089 26.5012 24.999 26.0434C25.0971 25.9453 25.2605 25.8145 25.4238 25.651C25.6199 25.4875 25.7506 25.3894 25.8487 25.324L24.7703 24.1795L25.8487 23.1331L26.9597 24.3103C27.0905 24.1141 27.2212 23.9179 27.4499 23.689C27.646 23.4601 27.8421 23.2966 27.9728 23.1658C28.3976 22.7734 28.8551 22.4791 29.3453 22.2829C29.8354 22.0867 30.391 22.0213 30.9465 22.0867C31.502 22.1194 32.0576 22.3156 32.6458 22.6426C33.234 22.9696 33.8222 23.4274 34.3778 24.016C34.966 24.6373 35.3908 25.2586 35.6849 25.9126C35.979 26.5339 36.1097 27.1552 36.1097 27.7438C36.1097 28.3324 36.0117 28.8883 35.7829 29.4115C35.5542 29.9347 35.2274 30.3925 34.7699 30.8176C34.6719 30.9157 34.5411 31.0465 34.3124 31.21C34.1163 31.3735 33.9529 31.4716 33.8222 31.537L35.064 32.845L33.9856 33.8914L32.7438 32.6161L32.8092 32.5834ZM18.9862 40.2679L22.0253 36.0169C21.4044 35.6245 20.7835 35.3956 20.1953 35.2321C19.6071 35.1013 19.0515 35.0686 18.5287 35.134C18.0058 35.2321 17.5483 35.3956 17.1562 35.6899C16.7314 35.9842 16.3719 36.3439 16.0451 36.8017C15.7183 37.2595 15.4569 37.7173 15.2935 38.1097C15.1301 38.5348 15.0321 38.8945 14.9994 39.2215L13.823 38.8618C13.8557 38.4367 13.9864 37.9462 14.2151 37.423C14.4439 36.8998 14.738 36.3766 15.0975 35.8534C15.555 35.2321 16.0451 34.7089 16.6333 34.3165C17.2216 33.9241 17.8751 33.6625 18.5614 33.5644C19.2803 33.4663 20.0646 33.5644 20.8815 33.7933C21.7312 34.0549 22.6135 34.5127 23.5612 35.1994C24.5415 35.8861 25.2605 36.6055 25.7506 37.3249C26.2408 38.077 26.5676 38.7964 26.6656 39.5485C26.7963 40.3006 26.731 41.02 26.5022 41.7394C26.2735 42.4588 25.9467 43.1128 25.4892 43.7668C25.1297 44.2573 24.803 44.6824 24.4435 45.0094C24.1167 45.3364 23.7899 45.598 23.4958 45.7942L22.6462 44.6824C22.9076 44.5516 23.2344 44.29 23.5612 43.9957C23.888 43.6687 24.1821 43.309 24.4762 42.9166C24.7703 42.5242 24.9663 42.0664 25.1297 41.6086C25.2931 41.1181 25.3258 40.5949 25.2605 40.0717C25.1951 39.5158 24.9663 38.9599 24.6396 38.404C24.3128 37.8481 23.7899 37.2922 23.1037 36.7363L20.0646 41.02L18.9862 40.2352V40.2679ZM11.078 57.5336C11.7316 57.7952 12.3851 57.9587 13.006 58.0568C13.6269 58.1549 14.2478 58.1549 14.7707 58.0568C15.3262 57.9587 15.8164 57.7625 16.2412 57.4355C16.666 57.1085 16.9928 56.6834 17.2216 56.0948C17.6464 55.0484 17.5483 54.0674 16.9928 53.1518C16.4373 52.2362 15.3262 51.4514 13.6923 50.7974C13.0387 50.5358 12.4178 50.3723 11.7642 50.2742C11.1107 50.1761 10.5225 50.1761 9.96693 50.2742C9.4114 50.3723 8.92122 50.5685 8.4964 50.8955C8.07158 51.2225 7.7448 51.6803 7.51605 52.2362C7.12391 53.2826 7.18926 54.2309 7.7448 55.1465C8.30033 56.0621 9.4114 56.8142 11.078 57.4682V57.5336ZM10.4898 59.0051C8.52908 58.2203 7.18926 57.2066 6.43766 55.964C5.71873 54.7214 5.65337 53.3153 6.27427 51.7784C6.60105 50.9609 7.02587 50.2742 7.54873 49.7837C8.07158 49.2932 8.69247 48.9662 9.37872 48.77C10.065 48.5738 10.8166 48.5411 11.6662 48.6392C12.4832 48.7373 13.3655 48.9662 14.2805 49.3259C16.2412 50.1107 17.581 51.1244 18.2999 52.367C19.0189 53.6096 19.0842 55.0157 18.4633 56.5853C18.1366 57.4028 17.7117 58.0568 17.1889 58.5473C16.666 59.0378 16.0451 59.3648 15.3589 59.561C14.6726 59.7572 13.921 59.7899 13.0714 59.6918C12.2544 59.5937 11.3721 59.3648 10.4571 59.0051H10.4898ZM4.18284 62.6675L3.3332 66.3626C5.65337 67.0166 7.5814 67.6379 9.08461 68.1938C10.5878 68.7497 11.7642 69.3056 12.5159 69.9269C13.006 70.3193 13.3655 70.7117 13.5289 71.1368C13.6923 71.5619 13.7576 71.9543 13.6596 72.3794C13.5942 72.5756 13.5616 72.7718 13.4962 72.9026C13.4309 73.0334 13.3655 73.1969 13.2675 73.3277L12.0257 72.8372C12.0257 72.8372 12.1237 72.6083 12.1564 72.4775C12.1891 72.2813 12.1564 72.0524 12.091 71.8562C11.993 71.6273 11.7969 71.3984 11.5028 71.1041C11.2087 70.8752 10.8493 70.6136 10.3264 70.352C9.83622 70.0904 9.18265 69.7961 8.39837 69.5018C7.61408 69.2075 6.66641 68.8805 5.55534 68.5535C4.44427 68.2265 3.13713 67.8668 1.63392 67.4744L3.13713 60.9344L15.4896 63.7793L15.1628 65.2508L4.11749 62.7002L4.18284 62.6675ZM12.81 73.949C13.0714 74.3414 13.2021 74.7992 13.3001 75.3551C13.3655 75.911 13.3655 76.4996 13.3001 77.1536C13.2348 77.9057 13.0714 78.6252 12.7446 79.2465C12.4505 79.9005 11.993 80.4237 11.4375 80.8815C10.8819 81.3393 10.163 81.6663 9.31336 81.8952C8.46372 82.1241 7.48337 82.1895 6.33962 82.0914C5.1632 81.9933 4.18284 81.7644 3.36588 81.372C2.54892 80.9796 1.92803 80.5218 1.43785 79.9659C0.947676 79.41 0.620891 78.7887 0.42482 78.102C0.228749 77.448 0.163392 76.7612 0.228749 76.0745C0.294106 75.3551 0.359463 74.7665 0.490177 74.3087C0.588212 73.8509 0.751605 73.4585 0.882319 73.1642L2.18946 73.622C1.86267 74.1779 1.63392 74.9954 1.56857 76.0745C1.53589 76.565 1.56857 77.0555 1.73196 77.5461C1.86267 78.0366 2.1241 78.4944 2.51624 78.9195C2.90838 79.3446 3.39856 79.6716 4.05213 79.9659C4.7057 80.2602 5.48998 80.4237 6.47034 80.4891C7.35266 80.5545 8.10426 80.4891 8.75783 80.3256C9.4114 80.1621 9.99961 79.9005 10.4571 79.5408C10.9146 79.1811 11.2741 78.756 11.5355 78.2655C11.7969 77.7749 11.9276 77.219 11.993 76.6304C12.0257 76.0745 11.993 75.6167 11.9276 75.1916C11.8623 74.7665 11.7316 74.4395 11.6009 74.1452L12.81 73.8836V73.949ZM8.23497 90.7569L7.94087 87.0618L4.18284 88.7622L2.28749 89.3508L4.28088 89.6778L8.2023 90.7896L8.23497 90.7569ZM9.21533 86.5059L9.57479 91.1493L13.1694 92.1303L13.2675 93.6345L0.0653569 89.874L0 89.1873L12.4832 83.3994L12.6139 85.0017L9.21533 86.5713V86.5059ZM5.48998 98.7357L3.59463 98.9973V99.0954L5.4573 99.3897L11.7969 101.319L11.895 101.777L7.09123 106.486L5.55534 107.499V107.597L7.35266 106.911L15.6857 104.981L16.0124 106.355L3.65999 109.2L3.39856 108.088L8.82319 102.758L10.065 101.842L8.52908 101.581L1.3725 99.3243L1.11107 98.1798L13.4635 95.3349L13.7903 96.8064L5.48998 98.7357V98.7357ZM10.7839 125.386L7.64676 119.239L8.85587 118.617L11.3068 123.424L14.9994 121.528L12.7446 117.113L13.9537 116.492L16.2085 120.906L20.228 118.846L17.7117 113.941L18.9208 113.32L22.1233 119.566L10.8166 125.354L10.7839 125.386ZM23.2671 132.678C23.8226 132.286 24.3455 131.828 24.7703 131.338C25.1951 130.847 25.5219 130.357 25.7506 129.866C25.9794 129.343 26.0774 128.82 26.0447 128.297C26.0447 127.773 25.816 127.25 25.4565 126.727C24.803 125.811 23.9533 125.354 22.8749 125.321C21.7965 125.321 20.5548 125.779 19.1169 126.825C18.5614 127.218 18.0712 127.675 17.6137 128.133C17.1889 128.624 16.8621 129.114 16.6333 129.637C16.4046 130.161 16.3066 130.684 16.3392 131.207C16.3392 131.73 16.568 132.253 16.9274 132.777C17.581 133.692 18.4307 134.15 19.4764 134.183C20.5548 134.183 21.7965 133.692 23.2344 132.678H23.2671ZM24.1821 133.986C22.4501 135.196 20.8815 135.785 19.4437 135.72C18.0058 135.654 16.7967 134.935 15.8491 133.594C15.3262 132.875 14.9994 132.155 14.9014 131.436C14.7707 130.716 14.836 130.03 15.0321 129.343C15.2608 128.656 15.6203 128.002 16.1758 127.381C16.6987 126.76 17.3849 126.138 18.2019 125.583C19.9339 124.34 21.5024 123.784 22.9403 123.849C24.3781 123.915 25.5872 124.634 26.5676 126.008C27.0905 126.727 27.3846 127.446 27.5153 128.166C27.646 128.885 27.5806 129.572 27.3519 130.259C27.1231 130.945 26.7637 131.599 26.2081 132.221C25.6853 132.842 24.999 133.463 24.1821 134.019V133.986ZM28.1688 137.453L32.5804 141.671L36.5999 137.453L37.6783 138.499L28.9204 147.688L27.8421 146.641L31.6654 142.652L27.2538 138.434L23.4305 142.423L22.3521 141.377L31.1099 132.188L32.1883 133.234L28.1688 137.453ZM36.6326 152.102C36.894 152.298 37.1227 152.462 37.3842 152.626C37.6129 152.789 37.8417 152.887 38.0051 152.952L41.0442 148.669C41.0442 148.669 40.9461 148.538 40.8481 148.473L40.5213 148.211C40.5213 148.211 40.2926 148.047 40.1945 147.949L39.9658 147.786C39.639 147.557 39.2795 147.328 38.8874 147.165C38.5279 147.001 38.1358 146.903 37.7436 146.87C37.3515 146.87 36.992 146.936 36.5999 147.132C36.2077 147.328 35.8483 147.655 35.5215 148.113C35.2274 148.505 35.064 148.898 35.0313 149.29C34.9986 149.682 35.0313 150.042 35.162 150.369C35.2927 150.696 35.4888 151.023 35.7502 151.317C36.0117 151.612 36.3058 151.873 36.6326 152.102V152.102ZM38.5606 154.751C38.1358 154.587 37.6783 154.359 37.2208 154.064C36.7633 153.77 36.3385 153.508 35.9136 153.181C35.4561 152.854 35.0313 152.495 34.6392 152.07C34.247 151.644 33.9203 151.187 33.6915 150.663C33.4628 150.14 33.3974 149.617 33.4628 149.028C33.5281 148.44 33.7569 147.819 34.2144 147.197C34.6719 146.576 35.162 146.118 35.6849 145.857C36.2077 145.595 36.7633 145.431 37.3515 145.431C37.907 145.431 38.4952 145.53 39.0508 145.758C39.6063 145.987 40.1618 146.282 40.6847 146.641C40.75 146.674 40.8154 146.739 40.9134 146.805C41.0115 146.87 41.1422 146.968 41.2729 147.066C41.4036 147.165 41.5017 147.263 41.6324 147.361C41.7304 147.459 41.8284 147.524 41.8611 147.557L44.6715 143.633L45.9132 144.516L38.6259 154.751H38.5606ZM45.9132 154.424L45.1616 155.667H45.227L46.5995 154.718L55.9455 149.879L56.7298 150.271L50.9457 161.585L49.6059 160.899L53.56 153.149L54.3116 151.939H54.2463L52.8738 152.854L43.4624 157.759L42.6781 157.367L48.4622 146.053L49.802 146.739L45.8806 154.391L45.9132 154.424ZM66.1739 155.896L65.9451 155.83C65.9451 155.83 65.7491 155.765 65.6184 155.732C65.4877 155.732 65.3896 155.699 65.2589 155.667C65.1282 155.667 65.0301 155.667 64.9648 155.667L62.9061 162.893C62.9061 162.893 63.2002 163.024 63.3962 163.09C63.5923 163.155 63.7884 163.22 63.9518 163.253C64.3439 163.351 64.736 163.384 65.1282 163.318C65.5203 163.253 65.8798 163.09 66.2393 162.861C66.5987 162.599 66.8928 162.272 67.1869 161.847C67.481 161.422 67.7098 160.866 67.8732 160.245C68.0366 159.689 68.1019 159.166 68.1019 158.675C68.1019 158.185 68.0366 157.759 67.8732 157.367C67.7098 156.975 67.5137 156.68 67.2196 156.419C66.9255 156.157 66.5987 155.961 66.1739 155.863V155.896ZM60.2264 162.207C60.2264 162.207 60.5859 162.305 60.8473 162.37C61.1087 162.436 61.3375 162.468 61.5009 162.436L63.5596 155.176C63.5596 155.176 63.2982 155.078 63.1021 155.013C62.906 154.947 62.71 154.882 62.5466 154.849C62.1544 154.751 61.7623 154.718 61.3702 154.751C60.978 154.816 60.6186 154.947 60.2591 155.176C59.8996 155.405 59.5728 155.765 59.3114 156.19C59.0173 156.615 58.7886 157.171 58.6252 157.792C58.4618 158.315 58.3964 158.839 58.3964 159.329C58.3964 159.82 58.4618 160.245 58.5925 160.637C58.7232 161.029 58.9193 161.356 59.2134 161.618C59.4748 161.88 59.8343 162.076 60.2264 162.174V162.207ZM65.3243 154.424C65.5203 154.424 65.7818 154.489 66.0432 154.555C66.3046 154.62 66.566 154.686 66.7948 154.751C67.3503 154.915 67.8405 155.143 68.2653 155.47C68.6901 155.797 69.0169 156.19 69.2784 156.713C69.5071 157.204 69.6705 157.792 69.7032 158.446C69.7032 159.1 69.6378 159.852 69.3764 160.702C69.1476 161.487 68.8535 162.174 68.4614 162.73C68.0693 163.286 67.6444 163.744 67.1542 164.071C66.6641 164.398 66.1085 164.594 65.5203 164.659C64.9321 164.725 64.3112 164.659 63.6903 164.496C63.5269 164.463 63.3635 164.398 63.1348 164.332C62.9061 164.267 62.7427 164.201 62.6119 164.136L62.1871 165.64L60.7493 165.215L61.1741 163.678C60.9453 163.678 60.6839 163.645 60.3898 163.58C60.0957 163.515 59.867 163.449 59.6709 163.384C59.1153 163.22 58.6252 162.991 58.2004 162.632C57.7755 162.305 57.4487 161.88 57.22 161.356C56.9912 160.866 56.8605 160.277 56.8279 159.591C56.8279 158.937 56.8932 158.185 57.122 157.4C57.3507 156.582 57.6775 155.863 58.0696 155.307C58.4618 154.751 58.9193 154.293 59.4421 153.999C59.9323 153.705 60.4878 153.508 61.0434 153.443C61.5989 153.378 62.1871 153.443 62.7753 153.607C62.906 153.639 63.1021 153.705 63.3309 153.803C63.5923 153.901 63.7557 153.966 63.8864 154.064L64.3766 152.331L65.8144 152.756L65.3243 154.457V154.424ZM79.0492 162.436L73.8533 162.043C73.8533 162.795 73.9514 163.449 74.1474 164.005C74.3435 164.594 74.6049 165.084 74.9317 165.477C75.2585 165.869 75.6507 166.163 76.1408 166.392C76.5983 166.588 77.1212 166.719 77.6767 166.752C78.2323 166.785 78.7551 166.785 79.2126 166.752C79.6701 166.687 80.0296 166.588 80.3237 166.425L80.6178 167.635C80.2256 167.831 79.7355 167.962 79.1799 168.06C78.6244 168.158 78.0362 168.158 77.3826 168.125C76.5983 168.06 75.9121 167.896 75.2585 167.602C74.6049 167.308 74.0821 166.883 73.6246 166.327C73.1671 165.771 72.8403 165.052 72.6442 164.201C72.4155 163.351 72.3828 162.337 72.4482 161.16C72.5462 159.983 72.7749 158.969 73.1344 158.185C73.5266 157.367 73.9841 156.746 74.5723 156.255C75.1605 155.765 75.814 155.438 76.533 155.242C77.2519 155.045 78.0035 155.013 78.7878 155.045C79.376 155.078 79.9315 155.176 80.389 155.307C80.8465 155.438 81.2387 155.569 81.5328 155.732L81.0426 157.04C80.7812 156.877 80.4217 156.746 79.9969 156.615C79.5721 156.484 79.0819 156.419 78.6244 156.386C78.1342 156.353 77.644 156.386 77.1539 156.517C76.6637 156.615 76.2062 156.844 75.7814 157.204C75.3565 157.531 74.9971 158.021 74.6703 158.577C74.3435 159.166 74.1474 159.885 74.0494 160.735L79.278 161.128L79.1799 162.468L79.0492 162.436Z" fill="black"/>
    <path d="M96.2066 160.831C96.1086 160.144 95.9779 159.49 95.7491 158.869C95.5204 158.248 95.259 157.725 94.8995 157.299C94.54 156.874 94.1479 156.547 93.6577 156.318C93.1675 156.09 92.612 156.024 92.0238 156.09C90.9127 156.22 90.0958 156.776 89.5729 157.692C89.05 158.607 88.8867 159.948 89.1154 161.714C89.2134 162.401 89.3441 163.055 89.5729 163.643C89.8016 164.265 90.0631 164.788 90.4225 165.213C90.782 165.638 91.2068 165.965 91.697 166.194C92.1872 166.423 92.7427 166.488 93.3636 166.423C94.4747 166.292 95.2916 165.736 95.8145 164.82C96.3373 163.905 96.5007 162.564 96.272 160.798L96.2066 160.831ZM97.8406 160.602C98.102 162.695 97.8405 164.363 97.1216 165.605C96.37 166.848 95.1936 167.567 93.527 167.763C92.6447 167.862 91.8604 167.829 91.1741 167.6C90.4879 167.371 89.8997 167.011 89.4095 166.488C88.9193 165.965 88.5272 165.344 88.2004 164.559C87.9063 163.774 87.6775 162.924 87.5468 161.91C87.2854 159.817 87.5468 158.15 88.2658 156.907C89.0174 155.664 90.2265 154.945 91.8604 154.749C92.7427 154.651 93.527 154.683 94.1806 154.912C94.8668 155.141 95.455 155.501 95.9452 156.024C96.4354 156.547 96.8602 157.169 97.1543 157.953C97.4484 158.738 97.6772 159.588 97.8079 160.602H97.8406ZM104.115 164.297L107.775 163.251C107.219 160.896 106.827 158.902 106.598 157.332C106.337 155.73 106.304 154.455 106.435 153.474C106.533 152.852 106.729 152.362 106.991 152.002C107.252 151.642 107.611 151.413 108.004 151.283C108.2 151.217 108.396 151.185 108.559 151.185C108.722 151.185 108.886 151.185 109.017 151.185L109.18 152.493C109.18 152.493 108.919 152.493 108.788 152.558C108.592 152.623 108.428 152.721 108.265 152.918C108.102 153.114 108.004 153.375 107.906 153.801C107.84 154.16 107.807 154.618 107.807 155.174C107.807 155.73 107.873 156.449 108.004 157.267C108.134 158.117 108.298 159.098 108.559 160.21C108.788 161.354 109.115 162.662 109.507 164.166L103.069 165.998L99.6052 153.768L101.043 153.343L104.147 164.265L104.115 164.297ZM109.801 151.25C110.03 150.858 110.356 150.465 110.814 150.138C111.271 149.811 111.794 149.517 112.382 149.255C113.069 148.928 113.788 148.765 114.507 148.732C115.225 148.699 115.912 148.83 116.598 149.092C117.252 149.386 117.905 149.844 118.526 150.465C119.147 151.086 119.67 151.937 120.127 152.983C120.617 154.062 120.879 155.043 120.944 155.926C120.977 156.809 120.879 157.594 120.617 158.313C120.356 159 119.964 159.588 119.474 160.079C118.984 160.569 118.428 160.962 117.807 161.223C117.154 161.518 116.598 161.714 116.14 161.845C115.683 161.976 115.291 162.041 114.931 162.041L114.703 160.668C115.356 160.668 116.173 160.471 117.154 160.046C117.611 159.85 118.003 159.556 118.395 159.196C118.755 158.836 119.016 158.379 119.212 157.855C119.376 157.332 119.441 156.711 119.376 155.991C119.31 155.305 119.082 154.487 118.689 153.604C118.33 152.82 117.905 152.166 117.448 151.642C116.99 151.152 116.467 150.759 115.944 150.531C115.422 150.302 114.866 150.171 114.31 150.204C113.755 150.204 113.199 150.334 112.644 150.596C112.154 150.825 111.729 151.054 111.402 151.315C111.075 151.577 110.814 151.839 110.651 152.133L109.834 151.217L109.801 151.25ZM126.663 147.13L123.526 149.124L126.794 151.61L128.199 152.983L127.513 151.086L126.63 147.13H126.663ZM122.447 148.274L126.369 145.756L125.519 142.127L126.794 141.309L129.702 154.749L129.114 155.109L118.101 146.868L119.441 146.018L122.447 148.274V148.274ZM135.192 145.495L136.368 146.999L136.434 146.934L135.715 145.2L134.146 138.758L134.473 138.431L140.976 140.165L142.643 140.949L142.708 140.884L141.238 139.707L135.355 133.526L136.368 132.545L145.126 141.734L144.309 142.519L136.957 140.557L135.551 139.936L136.14 141.407L137.839 148.699L136.989 149.517L128.232 140.328L129.31 139.282L135.192 145.462V145.495ZM155.714 127.739L151.989 133.559L150.845 132.84L153.753 128.294L150.257 126.038L147.577 130.191L146.433 129.472L149.113 125.319L145.322 122.866L142.349 127.51L141.205 126.79L144.996 120.904L155.681 127.771L155.714 127.739ZM155.91 113.383C155.257 113.089 154.636 112.893 154.015 112.762C153.394 112.631 152.806 112.598 152.25 112.664C151.695 112.729 151.204 112.925 150.747 113.22C150.289 113.514 149.963 113.939 149.701 114.495C149.244 115.509 149.276 116.49 149.767 117.438C150.289 118.386 151.335 119.204 152.969 119.956C153.59 120.25 154.244 120.446 154.864 120.577C155.485 120.708 156.106 120.741 156.662 120.675C157.217 120.61 157.708 120.414 158.165 120.119C158.623 119.825 158.949 119.4 159.211 118.811C159.668 117.798 159.636 116.817 159.113 115.901C158.59 114.986 157.544 114.135 155.91 113.416V113.383ZM156.564 111.944C158.492 112.827 159.799 113.906 160.452 115.182C161.106 116.457 161.106 117.863 160.452 119.367C160.093 120.185 159.636 120.839 159.08 121.297C158.524 121.754 157.904 122.081 157.185 122.212C156.498 122.376 155.714 122.376 154.897 122.212C154.08 122.081 153.231 121.787 152.316 121.395C150.388 120.512 149.08 119.433 148.427 118.157C147.773 116.882 147.773 115.476 148.459 113.939C148.819 113.122 149.276 112.5 149.832 112.043C150.388 111.585 151.008 111.29 151.695 111.127C152.381 110.963 153.165 110.963 153.982 111.127C154.799 111.258 155.649 111.552 156.564 111.944V111.944Z" fill="black"/>
  </symbol>

  <!-- interactiveButton -->
  <symbol id="interactiveButton" viewBox="0 0 47 48">
    <circle cx="23.3333" cy="24.1423" r="22.8333" fill="white" fill-opacity="0.4" stroke="url(#paint0_linear_714_2532)"/>
    <circle cx="23.3335" cy="24.1423" r="10" fill="#034023"/>
    <defs>
    <linearGradient id="paint0_linear_714_2532" x1="23.3333" y1="0.80896" x2="23.3333" y2="47.4756" gradientUnits="userSpaceOnUse">
    <stop stop-color="#26D07C"/>
    <stop offset="0.515625" stop-color="#007041"/>
    <stop offset="0.994792" stop-color="#034023"/>
    </linearGradient>
    </defs>
  </symbol>

  <!-- waveTop -->
  <symbol id="waveTop" viewBox="0 0 1440 180">
    <path style="transform:translate(0, 0px); opacity:1" fill="#ffffff" d="M0,0L80,0C160,0,320,0,480,24C640,48,800,96,960,123C1120,150,1280,156,1440,132C1600,108,1760,54,1920,54C2080,54,2240,108,2400,120C2560,132,2720,102,2880,75C3040,48,3200,24,3360,15C3520,6,3680,12,3840,33C4000,54,4160,90,4320,102C4480,114,4640,102,4800,108C4960,114,5120,138,5280,138C5440,138,5600,114,5760,105C5920,96,6080,102,6240,99C6400,96,6560,84,6720,87C6880,90,7040,108,7200,114C7360,120,7520,114,7680,105C7840,96,8000,84,8160,93C8320,102,8480,132,8640,120C8800,108,8960,54,9120,27C9280,0,9440,0,9600,18C9760,36,9920,72,10080,99C10240,126,10400,144,10560,129C10720,114,10880,66,11040,66C11200,66,11360,114,11440,138L11520,162L11520,180L11440,180C11360,180,11200,180,11040,180C10880,180,10720,180,10560,180C10400,180,10240,180,10080,180C9920,180,9760,180,9600,180C9440,180,9280,180,9120,180C8960,180,8800,180,8640,180C8480,180,8320,180,8160,180C8000,180,7840,180,7680,180C7520,180,7360,180,7200,180C7040,180,6880,180,6720,180C6560,180,6400,180,6240,180C6080,180,5920,180,5760,180C5600,180,5440,180,5280,180C5120,180,4960,180,4800,180C4640,180,4480,180,4320,180C4160,180,4000,180,3840,180C3680,180,3520,180,3360,180C3200,180,3040,180,2880,180C2720,180,2560,180,2400,180C2240,180,2080,180,1920,180C1760,180,1600,180,1440,180C1280,180,1120,180,960,180C800,180,640,180,480,180C320,180,160,180,80,180L0,180Z"></path>
  </symbol>

  <!-- arrow -->
  <symbol id="arrow" viewBox="0 0 43 16">
    <path d="M0.292893 7.29289C-0.0976295 7.68341 -0.0976296 8.31657 0.292892 8.7071L6.65685 15.0711C7.04738 15.4616 7.68054 15.4616 8.07107 15.0711C8.46159 14.6805 8.46159 14.0474 8.07107 13.6568L2.41422 7.99999L8.07107 2.34314C8.46159 1.95262 8.46159 1.31945 8.07107 0.928926C7.68054 0.538402 7.04738 0.538402 6.65685 0.928926L0.292893 7.29289ZM43 7L1 6.99999L1 8.99999L43 9L43 7Z"/>
  </symbol>

  <!-- logo-en -->
  <symbol id="logo-en" viewBox="0 0 188 27">
  <path d="M27.2539 3.00781H86.7383" stroke-width="0.58" stroke-miterlimit="22.93"/>
  <path d="M127.535 3.00781H187.399" stroke-width="0.58" stroke-miterlimit="22.93"/>
  <path fill-rule="evenodd" clip-rule="evenodd" d="M10.8848 26.9969H11.8129C13.2613 24.7188 14.4848 22.2578 15.1738 19.6703C15.2441 19.4172 15.4129 18.4187 15.4551 18.25L14.2879 20.9641C13.866 21.8641 13.3879 22.8063 12.8816 23.6922C12.4598 24.4375 11.6723 25.7875 10.8848 26.9828"/>
  <path fill-rule="evenodd" clip-rule="evenodd" d="M3.43125 23.2594C2.79844 24.9047 2.05312 25.6359 0.45 25.65H0V27H8.52187C8.18437 26.5078 8.00156 25.4953 8.26875 24.8344L8.69062 25.4813C8.26875 24.4406 8.33906 22.1062 9.01406 21.1359L9.32344 21.9234C9.32344 21.15 9.66094 19.4906 10.5328 18.7031L10.6453 19.1812C11.0531 18.1969 11.1937 17.8594 11.8406 17.2969C10.8281 16.9172 10.1109 15.9328 10.1109 14.7938C10.1109 13.3172 12.7828 8.83125 12.7828 8.83125C12.7828 8.83125 15.4547 13.3172 15.4547 14.7938C15.4547 15.0469 15.4125 15.3 15.3562 15.525C15.8203 14.4984 16.6359 14.2734 17.1141 14.1609C17.3812 14.6812 17.4797 15.3562 17.4516 15.8344C17.4094 16.8609 17.1844 17.1 17.0297 17.3672L17.6906 16.8891C18.0422 17.7469 17.6484 18.8016 17.2266 19.5469C17.4937 19.4906 17.6203 19.4625 17.8734 19.2656C17.7609 20.7703 17.5641 21.0375 17.0297 21.825C17.2406 21.8109 17.3953 21.6141 17.5359 21.4734C17.5359 23.1328 17.0016 23.4141 16.3125 24.0328C16.7203 24.0047 16.7625 24.0047 16.8891 23.9766C16.5375 26.4094 15.0047 27 14.1328 27H187.425V25.65H24.8203C23.9344 25.65 23.2594 25.1016 22.9078 24.1734L14.2453 2.60156H11.3484L3.43125 23.2594Z"/>
  <path d="M95.4034 6.01875H92V0.140625H92.7876V5.31563H95.4175V6.00469L95.4034 6.01875Z"/>
  <path d="M98.2442 6.11719C97.8644 6.11719 97.4988 6.04687 97.1894 5.92031C96.8659 5.79375 96.5846 5.59687 96.3596 5.34375C96.1346 5.09062 95.9377 4.76719 95.8111 4.3875C95.6846 4.00781 95.6143 3.57187 95.6143 3.06562C95.6143 2.55937 95.6705 2.1375 95.7971 1.77187C95.9237 1.40625 96.1065 1.08281 96.3456 0.815625C96.5846 0.548437 96.8519 0.351562 97.1753 0.210937C97.4988 0.0703125 97.8504 0 98.2582 0C98.4551 0 98.6379 0.0140625 98.8067 0.0421875C98.9755 0.0703125 99.1442 0.1125 99.2849 0.154687C99.4114 0.196875 99.538 0.239062 99.6786 0.309375C99.8193 0.379687 99.9459 0.435937 100.072 0.50625V1.44844H100.016C100.016 1.44844 99.8615 1.30781 99.749 1.22344C99.6365 1.13906 99.5099 1.04062 99.3552 0.95625C99.2005 0.871875 99.0458 0.801562 98.863 0.759375C98.6801 0.703125 98.4832 0.675 98.2442 0.675C97.991 0.675 97.7519 0.73125 97.541 0.829687C97.316 0.928125 97.1191 1.08281 96.9503 1.27969C96.7815 1.47656 96.655 1.72969 96.5565 2.03906C96.4581 2.34844 96.4159 2.68594 96.4159 3.06562C96.4159 3.47344 96.4581 3.81094 96.5565 4.10625C96.655 4.40156 96.7815 4.64062 96.9503 4.8375C97.1191 5.03437 97.3019 5.175 97.5269 5.27344C97.7519 5.37187 97.9769 5.42812 98.2301 5.42812C98.4551 5.42812 98.6661 5.4 98.863 5.34375C99.0598 5.2875 99.2286 5.21719 99.3833 5.13281C99.5239 5.04844 99.6505 4.96406 99.763 4.87969C99.8755 4.79531 99.9459 4.725 100.016 4.65469H100.072V5.58281C99.9459 5.63906 99.8193 5.69531 99.7068 5.75156C99.5943 5.80781 99.4536 5.86406 99.2849 5.92031C99.1161 5.97656 98.9614 6.01875 98.8067 6.04687C98.6661 6.075 98.4692 6.08906 98.2301 6.08906L98.2442 6.11719Z"/>
  <path d="M103.11 6.11719C102.731 6.11719 102.365 6.04687 102.056 5.92031C101.732 5.79375 101.451 5.59687 101.226 5.34375C101.001 5.09062 100.804 4.76719 100.677 4.3875C100.551 4.00781 100.48 3.57187 100.48 3.06562C100.48 2.55937 100.537 2.1375 100.663 1.77187C100.79 1.40625 100.973 1.08281 101.212 0.815625C101.451 0.548437 101.718 0.351562 102.042 0.210937C102.365 0.0703125 102.717 0 103.124 0C103.321 0 103.504 0.0140625 103.673 0.0421875C103.842 0.0703125 104.01 0.1125 104.151 0.154687C104.278 0.196875 104.404 0.239062 104.545 0.309375C104.685 0.379687 104.812 0.435937 104.939 0.50625V1.44844H104.882C104.882 1.44844 104.728 1.30781 104.615 1.22344C104.503 1.13906 104.376 1.04062 104.221 0.95625C104.067 0.871875 103.912 0.801562 103.729 0.759375C103.546 0.703125 103.349 0.675 103.11 0.675C102.857 0.675 102.618 0.73125 102.407 0.829687C102.182 0.928125 101.985 1.08281 101.817 1.27969C101.648 1.47656 101.521 1.72969 101.423 2.03906C101.324 2.34844 101.282 2.68594 101.282 3.06562C101.282 3.47344 101.324 3.81094 101.423 4.10625C101.521 4.40156 101.648 4.64062 101.817 4.8375C101.985 5.03437 102.168 5.175 102.393 5.27344C102.618 5.37187 102.843 5.42812 103.096 5.42812C103.321 5.42812 103.532 5.4 103.729 5.34375C103.926 5.2875 104.095 5.21719 104.25 5.13281C104.39 5.04844 104.517 4.96406 104.629 4.87969C104.742 4.79531 104.812 4.725 104.882 4.65469H104.939V5.58281C104.812 5.63906 104.685 5.69531 104.573 5.75156C104.46 5.80781 104.32 5.86406 104.151 5.92031C103.982 5.97656 103.828 6.01875 103.673 6.04687C103.532 6.075 103.335 6.08906 103.096 6.08906L103.11 6.11719Z"/>
  <path d="M107.048 4.89375L105.937 7.48125H105.36L106.049 4.89375H107.034H107.048Z"/>
  <path d="M115.191 6.01875H114.179L112.308 3.68437H111.422V6.01875H110.635V0.140625H112.154C112.491 0.140625 112.772 0.154687 112.997 0.196875C113.222 0.239062 113.447 0.323438 113.644 0.45C113.855 0.576563 114.01 0.745313 114.137 0.95625C114.249 1.16719 114.319 1.42031 114.319 1.72969C114.319 2.16562 114.207 2.51719 113.996 2.8125C113.771 3.10781 113.476 3.31875 113.11 3.45938L115.205 6.01875H115.191ZM113.504 1.78594C113.504 1.61719 113.476 1.4625 113.419 1.33594C113.363 1.20938 113.265 1.09688 113.138 1.0125C113.026 0.942188 112.899 0.885937 112.744 0.857812C112.59 0.829687 112.407 0.815625 112.196 0.815625H111.422V3.0375H112.111C112.336 3.0375 112.533 3.02344 112.716 2.98125C112.899 2.93906 113.054 2.85469 113.18 2.74219C113.293 2.62969 113.377 2.50312 113.433 2.34844C113.49 2.19375 113.518 2.01094 113.518 1.81406L113.504 1.78594Z"/>
  <path d="M119.382 1.9125C119.382 2.16562 119.34 2.40469 119.242 2.64375C119.143 2.88281 119.031 3.06563 118.862 3.22031C118.665 3.41719 118.426 3.57187 118.145 3.67031C117.863 3.76875 117.526 3.825 117.104 3.825H116.443V6.01875H115.655V0.140625H117.132C117.484 0.140625 117.779 0.16875 118.018 0.225C118.257 0.28125 118.482 0.379687 118.665 0.50625C118.89 0.660937 119.059 0.84375 119.185 1.08281C119.312 1.30781 119.368 1.58906 119.368 1.9125H119.382ZM118.566 1.92656C118.566 1.72969 118.524 1.54688 118.454 1.39219C118.384 1.2375 118.271 1.125 118.13 1.02656C118.004 0.942187 117.863 0.885937 117.694 0.857812C117.526 0.829687 117.329 0.801563 117.076 0.801563H116.429V3.15H116.963C117.273 3.15 117.54 3.12188 117.723 3.07969C117.905 3.0375 118.074 2.93906 118.215 2.79844C118.327 2.68594 118.412 2.54531 118.468 2.40469C118.524 2.26406 118.552 2.09531 118.552 1.9125L118.566 1.92656Z"/>
  <path d="M119.298 6.01875L121.281 0.140625H122.251L124.234 6.01875H123.404L122.87 4.37344H120.62L120.085 6.01875H119.298ZM122.645 3.7125L121.731 0.942187L120.831 3.7125H122.645Z"/>
  <path d="M43.091 9.01407H44.9474L49.054 20.6578L50.0947 20.8266V21.6563H45.6365V20.8266L47.0429 20.6578L46.2553 18.1547H41.3331L40.5455 20.6578L41.9941 20.8266V21.6563H38V20.8266L39.0407 20.6578L43.1051 9.01407H43.091ZM44.1599 11.7141L43.738 10.2234L43.3301 11.7422L41.6284 17.1563H45.9319L44.1599 11.7V11.7141Z"/>
  <path d="M52.0773 10.1672L50.7131 9.97031V9.12656H55.551V9.97031L53.8774 10.1672V20.6578L58.2371 20.5031L59.2356 17.6625L60.2623 17.8172L59.6716 21.6422H50.6709V20.8125L52.0773 20.6437V10.1672Z"/>
  <path d="M62.7517 10.1672L61.3734 9.97031V9.12656H69.9663L70.2054 11.7422H69.2491L68.7568 10.1109L64.5659 10.0125V14.7656L67.3786 14.7094L67.6177 13.3031H68.5459V17.1844H67.6177L67.3786 15.7359L64.5659 15.6797V20.7141L69.3194 20.5453L70.2195 18.4219L71.218 18.7312L70.7258 21.6703H61.3594V20.8406L62.7657 20.6719V10.1672H62.7517Z"/>
  <path d="M80.6827 20.9672C80.3874 20.5172 79.9655 19.8 79.4029 18.8156C79.3326 18.6891 79.1498 18.3516 78.8404 17.8172C78.531 17.2687 78.2497 16.8047 77.9825 16.4109C77.7153 16.0172 77.4903 15.7078 77.2793 15.4828L75.5776 17.4094V20.6719L77.1105 20.8406V21.6703H72.3711V20.8406L73.7775 20.6719V10.1672L72.3992 9.97031V9.12656H76.984V9.97031L75.5776 10.1672V16.0734L80.5421 10.1672L79.1216 9.97031V9.12656H83.2845V9.97031L81.9906 10.1672L78.3481 14.2453C78.7419 14.5828 79.1638 15.075 79.5998 15.7078C80.0498 16.3547 80.5842 17.1703 81.2312 18.1828C81.7797 19.0547 82.1875 19.6594 82.4406 20.025C82.6938 20.3906 82.8907 20.5875 83.0454 20.6297L83.833 20.8125V21.6422H81.414C81.2171 21.6422 80.978 21.4172 80.6827 20.9531V20.9672Z"/>
  <path d="M87.1387 21.6844C86.6746 21.5859 86.1683 21.4453 85.6198 21.2766C85.2823 21.15 85.0291 21.0797 84.8604 21.0797L85.001 18.0281H86.0839L86.3652 20.2219C86.562 20.4047 86.8714 20.5594 87.3074 20.7C87.7434 20.8406 88.2216 20.9109 88.7278 20.9109C89.5857 20.9109 90.2327 20.7141 90.6827 20.3344C91.1327 19.9547 91.3437 19.4203 91.3437 18.7453C91.3437 18.3094 91.2171 17.9297 90.978 17.6203C90.7389 17.3109 90.4155 17.0297 90.0217 16.8047C89.6279 16.5797 89.0794 16.3125 88.3763 16.0172C87.7434 15.7359 87.1949 15.4547 86.7308 15.1594C86.2667 14.8641 85.8589 14.4703 85.5213 13.9922C85.1838 13.5 85.001 12.9094 85.001 12.2344C85.001 11.6156 85.1698 11.0672 85.4932 10.575C85.8307 10.0828 86.3089 9.70312 86.9277 9.42187C87.5465 9.14062 88.2778 9 89.1076 9C89.6279 9 90.078 9.04219 90.4858 9.1125C90.8796 9.19687 91.3437 9.29531 91.85 9.43594C92.075 9.52031 92.2719 9.5625 92.4266 9.59063L92.3281 12.4312H91.3015L90.964 10.35C90.8515 10.2375 90.6124 10.125 90.2608 10.0266C89.9092 9.92812 89.5154 9.87187 89.1076 9.87187C88.3341 9.87187 87.7434 10.0406 87.3496 10.3641C86.9558 10.6875 86.7449 11.1656 86.7449 11.7844C86.7449 12.2344 86.8714 12.6141 87.1105 12.9094C87.3496 13.2187 87.659 13.4719 88.0106 13.6828C88.3763 13.8937 88.9388 14.1891 89.7264 14.5547C90.4577 14.9062 91.0483 15.2156 91.5124 15.4969C91.9765 15.7781 92.3703 16.1437 92.7079 16.6078C93.0454 17.0578 93.2001 17.6062 93.2001 18.2391C93.2001 18.8297 93.0313 19.4062 92.7079 19.9547C92.3703 20.5031 91.864 20.9531 91.189 21.3187C90.5139 21.6703 89.6842 21.8531 88.7138 21.8531C88.1231 21.8531 87.6028 21.7969 87.1387 21.6984V21.6844Z"/>
  <path d="M96.0124 10.1672L94.6342 9.97031V9.12656H103.227L103.466 11.7422H102.51L102.018 10.1109L97.8266 10.0125V14.7656L100.639 14.7094L100.878 13.3031H101.807V17.1844H100.878L100.639 15.7359L97.8266 15.6797V20.7141L102.58 20.5453L103.48 18.4219L104.479 18.7312L103.986 21.6703H94.6201V20.8406L96.0265 20.6719V10.1672H96.0124Z"/>
  <path d="M106.996 10.1672L105.618 9.97031V9.12656H114.21L114.45 11.7422H113.493L113.001 10.1109L108.81 10.0125V14.7656L111.623 14.7094L111.862 13.3031H112.79V17.1844H111.862L111.623 15.7359L108.81 15.6797V20.7141L113.564 20.5453L114.464 18.4219L115.462 18.7312L114.97 21.6703H105.604V20.8406L107.01 20.6719V10.1672H106.996Z"/>
  <path d="M115.533 9.1125H120.02V9.95625L118.515 10.1531L121.299 18.0703L121.918 20.1234L122.481 18.0281L124.998 10.1531L123.662 9.95625V9.1125H127.431V9.95625L126.348 10.1531L122.354 21.7828H120.891L116.574 10.1531L115.547 9.95625V9.1125H115.533Z"/>
  <path d="M130.44 21.6844C129.976 21.5859 129.47 21.4453 128.922 21.2766C128.584 21.15 128.331 21.0797 128.162 21.0797L128.303 18.0281H129.386L129.667 20.2219C129.864 20.4047 130.173 20.5594 130.609 20.7C131.045 20.8406 131.523 20.9109 132.03 20.9109C132.887 20.9109 133.534 20.7141 133.984 20.3344C134.434 19.9547 134.645 19.4203 134.645 18.7453C134.645 18.3094 134.519 17.9297 134.28 17.6203C134.041 17.3109 133.717 17.0297 133.323 16.8047C132.93 16.5797 132.381 16.3125 131.678 16.0172C131.045 15.7359 130.497 15.4547 130.033 15.1594C129.568 14.8641 129.161 14.4703 128.823 13.9922C128.486 13.5 128.303 12.9094 128.303 12.2344C128.303 11.6156 128.472 11.0672 128.795 10.575C129.132 10.0828 129.611 9.70312 130.229 9.42187C130.848 9.14062 131.58 9 132.409 9C132.93 9 133.38 9.04219 133.788 9.1125C134.181 9.19687 134.645 9.29531 135.152 9.43594C135.377 9.52031 135.574 9.5625 135.728 9.59063L135.63 12.4312H134.603L134.266 10.35C134.153 10.2375 133.914 10.125 133.563 10.0266C133.211 9.92812 132.817 9.87187 132.409 9.87187C131.636 9.87187 131.045 10.0406 130.651 10.3641C130.258 10.6875 130.047 11.1656 130.047 11.7844C130.047 12.2344 130.173 12.6141 130.412 12.9094C130.651 13.2187 130.961 13.4719 131.312 13.6828C131.678 13.8937 132.241 14.1891 133.028 14.5547C133.759 14.9062 134.35 15.2156 134.814 15.4969C135.278 15.7781 135.672 16.1437 136.01 16.6078C136.347 17.0578 136.502 17.6062 136.502 18.2391C136.502 18.8297 136.333 19.4062 136.01 19.9547C135.672 20.5031 135.166 20.9531 134.491 21.3187C133.816 21.6703 132.986 21.8531 132.016 21.8531C131.425 21.8531 130.905 21.7969 130.44 21.6984V21.6844Z"/>
  <path d="M146.262 20.9672C145.966 20.5172 145.545 19.8 144.982 18.8156C144.912 18.6891 144.729 18.3516 144.419 17.8172C144.11 17.2687 143.829 16.8047 143.562 16.4109C143.294 16.0172 143.069 15.7078 142.858 15.4828L141.157 17.4094V20.6719L142.69 20.8406V21.6703H137.95V20.8406L139.357 20.6719V10.1672L137.978 9.97031V9.12656H142.563V9.97031L141.157 10.1672V16.0734L146.121 10.1672L144.701 9.97031V9.12656H148.864V9.97031L147.57 10.1672L143.927 14.2453C144.321 14.5828 144.743 15.075 145.179 15.7078C145.615 16.3406 146.163 17.1703 146.81 18.1828C147.359 19.0547 147.767 19.6594 148.02 20.025C148.273 20.3906 148.47 20.5875 148.624 20.6297L149.412 20.8125V21.6422H146.993C146.796 21.6422 146.557 21.4172 146.262 20.9531V20.9672Z"/>
  <path d="M152.366 21.0516C151.578 20.5172 150.974 19.7719 150.566 18.8156C150.158 17.8594 149.961 16.7344 149.961 15.4687C149.961 14.2031 150.2 13.0359 150.692 12.0656C151.184 11.0953 151.86 10.3359 152.703 9.80156C153.561 9.26719 154.518 9 155.586 9C157.344 9 158.68 9.54844 159.609 10.6594C160.537 11.7703 161.001 13.3031 161.001 15.2578C161.001 16.5797 160.748 17.7328 160.256 18.7312C159.749 19.7297 159.074 20.5031 158.202 21.0375C157.33 21.5859 156.36 21.8531 155.277 21.8531C154.124 21.8531 153.153 21.5859 152.366 21.0656V21.0516ZM152.914 11.2922C152.281 12.2484 151.972 13.6406 151.972 15.4687C151.972 17.1562 152.281 18.4922 152.886 19.4766C153.505 20.4609 154.349 20.9531 155.46 20.9531C156.571 20.9531 157.401 20.4609 158.033 19.4906C158.666 18.5203 158.99 17.1 158.99 15.2719C158.99 13.5703 158.68 12.2484 158.076 11.2922C157.471 10.3359 156.613 9.87187 155.488 9.87187C154.363 9.87187 153.533 10.35 152.9 11.2922H152.914Z"/>
  <path d="M163.757 10.1672L162.378 9.97031V9.12656H170.971L171.21 11.7422H170.254L169.762 10.1109L165.571 10.0125V14.7656L168.383 14.7094L168.623 13.3031H169.551V17.1844H168.623L168.383 15.7359L165.571 15.6797V20.7141L170.324 20.5453L171.224 18.4219L172.223 18.7312L171.731 21.6703H162.364V20.8406L163.771 20.6719V10.1672H163.757Z"/>
  </symbol>

  <!-- logo-ru -->
  <symbol id="logo-ru" viewBox="0 0 188 27">
    <path d="M27.2539 3.00781H86.7383" stroke-miterlimit="22.93"/>
    <path d="M127.535 3.00781H187.399" stroke-miterlimit="22.93"/>
    <path d="M120.712 3.02187C120.712 3.34531 120.74 3.65469 120.81 3.93594C120.88 4.23125 120.979 4.48437 121.105 4.69531C121.246 4.92031 121.415 5.08906 121.626 5.21562C121.837 5.34219 122.076 5.4125 122.371 5.4125C122.891 5.4125 123.299 5.21562 123.595 4.82187C123.89 4.42812 124.03 3.82344 124.03 3.00781C124.03 2.68437 124.002 2.38906 123.932 2.09375C123.862 1.79844 123.763 1.54531 123.637 1.32031C123.496 1.09531 123.327 0.926562 123.116 0.8C122.905 0.673437 122.652 0.603125 122.371 0.603125C121.865 0.603125 121.457 0.8 121.162 1.19375C120.866 1.5875 120.726 2.19219 120.726 3.00781L120.712 3.02187ZM119.995 3.00781C119.995 2.0375 120.205 1.29219 120.613 0.771875C121.021 0.251562 121.612 -0.015625 122.371 -0.015625C122.779 -0.015625 123.145 0.0546875 123.44 0.195312C123.735 0.335937 123.988 0.546875 124.185 0.814062C124.382 1.08125 124.523 1.39062 124.621 1.77031C124.72 2.13594 124.762 2.55781 124.762 3.00781C124.762 3.97812 124.551 4.72344 124.143 5.24375C123.735 5.76406 123.13 6.03125 122.371 6.03125C121.963 6.03125 121.612 5.96094 121.316 5.82031C121.021 5.67969 120.768 5.46875 120.571 5.20156C120.374 4.93437 120.234 4.625 120.135 4.24531C120.037 3.87969 119.995 3.45781 119.995 3.00781V3.00781ZM118.124 0.701562H115.424V5.93281H114.735V0.096875H118.813V5.94687H118.124V0.715625V0.701562ZM112.626 3.24687H109.827V5.93281H109.138V0.096875H109.827V2.64219H112.626V0.096875H113.315V5.94687H112.626V3.26094V3.24687ZM101.685 3.00781C101.685 3.33125 101.713 3.64062 101.784 3.92187C101.854 4.21719 101.952 4.47031 102.079 4.68125C102.22 4.90625 102.388 5.075 102.599 5.20156C102.81 5.32812 103.049 5.39844 103.345 5.39844C103.865 5.39844 104.273 5.20156 104.568 4.80781C104.863 4.41406 105.004 3.80937 105.004 2.99375C105.004 2.67031 104.976 2.375 104.905 2.07969C104.835 1.78437 104.737 1.53125 104.61 1.30625C104.47 1.08125 104.301 0.9125 104.09 0.785937C103.879 0.659375 103.626 0.589062 103.345 0.589062C102.838 0.589062 102.43 0.785937 102.135 1.17969C101.84 1.57344 101.699 2.17812 101.699 2.99375L101.685 3.00781ZM100.954 3.00781C100.954 2.0375 101.165 1.29219 101.573 0.771875C101.98 0.251562 102.571 -0.015625 103.33 -0.015625C103.738 -0.015625 104.104 0.0546875 104.399 0.195312C104.695 0.335937 104.948 0.546875 105.145 0.814062C105.341 1.08125 105.482 1.39062 105.58 1.77031C105.679 2.13594 105.721 2.55781 105.721 3.00781C105.721 3.97812 105.51 4.72344 105.102 5.24375C104.695 5.76406 104.09 6.03125 103.33 6.03125C102.923 6.03125 102.571 5.96094 102.276 5.82031C101.98 5.67969 101.727 5.46875 101.53 5.20156C101.334 4.93437 101.193 4.625 101.095 4.24531C100.996 3.87969 100.954 3.45781 100.954 3.00781ZM95.9758 3.00781C95.9758 3.33125 96.0039 3.64062 96.0742 3.92187C96.1445 4.21719 96.243 4.47031 96.3695 4.68125C96.4961 4.90625 96.6789 5.075 96.8898 5.20156C97.1008 5.32812 97.3398 5.39844 97.6352 5.39844C98.1555 5.39844 98.5633 5.20156 98.8586 4.80781C99.1539 4.41406 99.2945 3.80937 99.2945 2.99375C99.2945 2.67031 99.2664 2.375 99.1961 2.07969C99.1258 1.78437 99.0273 1.53125 98.9008 1.30625C98.7602 1.08125 98.5914 0.9125 98.3805 0.785937C98.1695 0.659375 97.9164 0.589062 97.6352 0.589062C97.1289 0.589062 96.7211 0.785937 96.4258 1.17969C96.1305 1.57344 95.9898 2.17812 95.9898 2.99375L95.9758 3.00781ZM95.2445 3.00781C95.2445 2.0375 95.4555 1.29219 95.8633 0.771875C96.2711 0.251562 96.8617 -0.015625 97.6211 -0.015625C98.0289 -0.015625 98.3945 0.0546875 98.6898 0.195312C98.9852 0.335937 99.2383 0.546875 99.4352 0.814062C99.632 1.08125 99.7727 1.39062 99.8711 1.77031C99.9695 2.13594 100.012 2.55781 100.012 3.00781C100.012 3.97812 99.8008 4.72344 99.393 5.24375C98.9852 5.76406 98.3805 6.03125 97.6211 6.03125C97.2133 6.03125 96.8617 5.96094 96.5664 5.82031C96.2711 5.67969 96.018 5.46875 95.8211 5.20156C95.6242 4.93437 95.4836 4.625 95.3852 4.24531C95.2867 3.87969 95.2445 3.45781 95.2445 3.00781ZM90.2664 3.00781C90.2664 3.33125 90.2945 3.64062 90.3648 3.92187C90.4352 4.21719 90.5336 4.47031 90.6602 4.68125C90.7867 4.90625 90.9695 5.075 91.1805 5.20156C91.3914 5.32812 91.6305 5.39844 91.9258 5.39844C92.4461 5.39844 92.8539 5.20156 93.1492 4.80781C93.4445 4.41406 93.5852 3.80937 93.5852 2.99375C93.5852 2.67031 93.557 2.375 93.4867 2.07969C93.4164 1.78437 93.318 1.53125 93.1914 1.30625C93.0508 1.08125 92.882 0.9125 92.6711 0.785937C92.4602 0.659375 92.207 0.589062 91.9258 0.589062C91.4195 0.589062 91.0117 0.785937 90.7164 1.17969C90.4211 1.57344 90.2805 2.17812 90.2805 2.99375L90.2664 3.00781ZM89.5352 3.00781C89.5352 2.0375 89.7461 1.29219 90.1539 0.771875C90.5617 0.251562 91.1523 -0.015625 91.9117 -0.015625C92.3195 -0.015625 92.6852 0.0546875 92.9805 0.195312C93.2758 0.335937 93.5289 0.546875 93.7258 0.814062C93.9227 1.08125 94.0633 1.39062 94.1617 1.77031C94.2602 2.13594 94.3023 2.55781 94.3023 3.00781C94.3023 3.97812 94.0914 4.72344 93.6836 5.24375C93.2758 5.76406 92.6711 6.03125 91.9117 6.03125C91.5039 6.03125 91.1523 5.96094 90.857 5.82031C90.5617 5.67969 90.3086 5.46875 90.1117 5.20156C89.9148 4.93437 89.7742 4.625 89.6758 4.24531C89.5773 3.87969 89.5352 3.45781 89.5352 3.00781Z"/>
    <path d="M173.418 20.8375L175.007 20.5844V9.68594L173.418 9.44687V8.95469H182.685V11.9219H182.08L181.785 9.91094C181.588 9.88281 181.349 9.86875 181.068 9.85469C180.787 9.84063 180.505 9.82656 180.21 9.8125C179.915 9.8125 179.648 9.79844 179.395 9.79844C179.141 9.79844 178.945 9.79844 178.79 9.79844H176.765V14.6359H180.098L180.379 13.1594H180.97V16.9563H180.379L180.098 15.4656H176.765V20.5H179.198C179.577 20.5 179.943 20.5 180.28 20.5C180.618 20.5 180.927 20.4719 181.195 20.4719C181.462 20.4719 181.701 20.4437 181.884 20.4297C182.08 20.4156 182.221 20.3875 182.319 20.3734L182.84 18.0812H183.445L183.262 21.3437H173.39V20.8516L173.418 20.8375ZM159.538 15.1281C159.538 14.0313 159.665 13.0891 159.932 12.3016C160.199 11.5141 160.593 10.8531 161.099 10.3328C161.605 9.8125 162.238 9.43281 162.984 9.19375C163.729 8.95469 164.601 8.82812 165.571 8.82812C166.541 8.82812 167.357 8.95469 168.102 9.19375C168.848 9.43281 169.48 9.82656 170.001 10.3328C170.521 10.8531 170.929 11.5 171.196 12.3016C171.477 13.0891 171.618 14.0453 171.618 15.1281C171.618 16.2109 171.477 17.1672 171.196 17.9687C170.915 18.7703 170.521 19.4312 170.001 19.9516C169.48 20.4719 168.848 20.8656 168.102 21.1187C167.357 21.3719 166.513 21.4984 165.571 21.4984C164.629 21.4984 163.785 21.3719 163.04 21.1187C162.295 20.8656 161.662 20.4719 161.141 19.9516C160.621 19.4312 160.213 18.7703 159.946 17.9687C159.665 17.1672 159.524 16.225 159.524 15.1281H159.538ZM161.465 15.1281C161.465 15.9859 161.535 16.7594 161.662 17.4625C161.788 18.1516 162.013 18.7563 162.323 19.2344C162.632 19.7266 163.054 20.1062 163.588 20.3734C164.123 20.6406 164.784 20.7672 165.585 20.7672C166.387 20.7672 167.048 20.6406 167.568 20.3734C168.102 20.1062 168.524 19.7266 168.834 19.2344C169.157 18.7422 169.368 18.1516 169.509 17.4625C169.635 16.7734 169.705 15.9859 169.705 15.1281C169.705 14.2703 169.649 13.4969 169.509 12.8219C169.382 12.1328 169.157 11.5422 168.834 11.0641C168.524 10.5859 168.088 10.2062 167.568 9.95312C167.034 9.7 166.373 9.57344 165.585 9.57344C164.798 9.57344 164.123 9.7 163.588 9.95312C163.054 10.2062 162.632 10.5859 162.323 11.0641C162.013 11.5422 161.788 12.1328 161.662 12.8219C161.535 13.5109 161.465 14.2844 161.465 15.1281ZM158.287 8.95469V9.44687L156.852 9.68594L152.943 13.8484L157.485 20.5844L158.821 20.8375V21.3297H155.713L151.663 15.1562L150.088 16.5625V20.5984L151.86 20.8516V21.3437H146.727V20.8516L148.316 20.5984V9.68594L146.727 9.44687V8.95469H151.677V9.44687L150.088 9.68594V15.55L155.601 9.68594L154.42 9.44687V8.95469H158.287V8.95469ZM140.245 21.5125C139.232 21.5125 138.332 21.3719 137.545 21.0906C136.757 20.8094 136.082 20.4016 135.548 19.8672C134.999 19.3328 134.591 18.6859 134.31 17.9125C134.029 17.1391 133.888 16.2672 133.888 15.2969C133.888 14.1859 134.029 13.2297 134.31 12.4281C134.591 11.6125 135.013 10.9516 135.562 10.4172C136.11 9.88281 136.771 9.48906 137.573 9.23594C138.36 8.98281 139.274 8.84219 140.287 8.84219C140.709 8.84219 141.116 8.84219 141.482 8.88437C141.862 8.9125 142.213 8.94062 142.551 8.99687C142.888 9.03906 143.212 9.08125 143.521 9.15156C143.83 9.20781 144.126 9.26406 144.421 9.32031L144.477 12.0203H143.873L143.591 10.4172C143.155 10.15 142.663 9.95312 142.101 9.79844C141.524 9.65781 140.948 9.5875 140.357 9.5875C139.64 9.5875 138.993 9.68594 138.43 9.88281C137.868 10.0797 137.39 10.4031 137.01 10.8391C136.616 11.2891 136.321 11.8656 136.124 12.5969C135.913 13.3281 135.815 14.2141 135.815 15.2828C135.815 16.2109 135.913 17.0266 136.124 17.7156C136.321 18.4047 136.616 18.9812 136.996 19.4453C137.376 19.9094 137.84 20.2469 138.388 20.4719C138.937 20.6969 139.57 20.8094 140.273 20.8094C140.652 20.8094 141.018 20.7812 141.37 20.7391C141.721 20.6828 142.045 20.6266 142.34 20.5281C142.635 20.4437 142.902 20.3453 143.141 20.2328C143.38 20.1203 143.577 19.9938 143.732 19.8813L144.07 18.0391H144.674L144.618 20.95C144.365 21.0203 144.07 21.1047 143.732 21.1609C143.395 21.2313 143.043 21.3016 142.677 21.3437C142.298 21.4 141.904 21.4422 141.496 21.4703C141.088 21.4984 140.666 21.5125 140.259 21.5125H140.245ZM120.599 21.3297V20.8375L122.188 20.5844V9.68594L120.599 9.44687V8.95469H126.252C127.124 8.95469 127.841 9.025 128.418 9.15156C128.995 9.27813 129.459 9.475 129.81 9.72812C130.162 9.98125 130.415 10.2906 130.555 10.6422C130.71 11.0078 130.78 11.4156 130.78 11.8516C130.78 12.2453 130.724 12.5969 130.598 12.9203C130.471 13.2437 130.302 13.525 130.077 13.7641C129.852 14.0031 129.585 14.2141 129.276 14.3688C128.966 14.5375 128.615 14.65 128.249 14.7344C128.784 14.7906 129.262 14.9031 129.698 15.0578C130.134 15.2125 130.499 15.4234 130.795 15.6766C131.09 15.9297 131.329 16.2391 131.484 16.5766C131.652 16.9281 131.723 17.3219 131.723 17.7437C131.723 18.2781 131.638 18.7703 131.455 19.2062C131.273 19.6562 130.991 20.0359 130.598 20.3453C130.204 20.6688 129.712 20.9078 129.107 21.0906C128.502 21.2594 127.757 21.3578 126.899 21.3578C126.21 21.3578 125.521 21.3578 124.846 21.3297C124.157 21.3156 123.538 21.3016 122.962 21.3016H120.599V21.3297ZM129.81 17.8141C129.81 17.3781 129.74 17.0125 129.599 16.7031C129.459 16.3937 129.248 16.1266 128.952 15.9297C128.657 15.7187 128.291 15.5641 127.827 15.4656C127.363 15.3672 126.815 15.3109 126.168 15.3109H123.96V20.5C124.241 20.5 124.537 20.5281 124.846 20.5281C125.113 20.5281 125.409 20.5563 125.718 20.5563C126.041 20.5563 126.351 20.5563 126.674 20.5563C127.251 20.5563 127.743 20.5 128.137 20.3594C128.53 20.2328 128.854 20.05 129.107 19.8109C129.36 19.5719 129.529 19.2906 129.641 18.9531C129.754 18.6156 129.81 18.2359 129.81 17.8141V17.8141ZM128.882 11.9641C128.882 11.5984 128.826 11.2891 128.727 11.0078C128.615 10.7406 128.446 10.5156 128.207 10.3328C127.968 10.15 127.659 10.0094 127.279 9.925C126.899 9.84062 126.435 9.78437 125.873 9.78437H123.96V14.4672H125.985C126.562 14.4672 127.026 14.4109 127.405 14.2844C127.785 14.1719 128.08 13.9891 128.291 13.7781C128.502 13.5672 128.657 13.3 128.755 12.9906C128.84 12.6812 128.896 12.3438 128.896 11.9641H128.882ZM108.59 20.8375L110.179 20.5844V9.68594L108.59 9.44687V8.95469H117.857V11.9219H117.252L116.957 9.91094C116.76 9.88281 116.521 9.86875 116.24 9.85469C115.959 9.84063 115.677 9.82656 115.382 9.8125C115.087 9.8125 114.82 9.79844 114.566 9.79844C114.313 9.79844 114.116 9.79844 113.976 9.79844H111.951V14.6359H115.284L115.565 13.1594H116.155V16.9563H115.565L115.284 15.4656H111.951V20.5H114.384C114.763 20.5 115.129 20.5 115.466 20.5C115.804 20.5 116.113 20.4719 116.38 20.4719C116.648 20.4719 116.887 20.4437 117.07 20.4297C117.266 20.4156 117.407 20.3875 117.505 20.3734L118.026 18.0812H118.63L118.448 21.3437H108.576V20.8516L108.59 20.8375ZM96.5805 20.8375L98.1695 20.5844V9.68594L96.5805 9.44687V8.95469H105.848V11.9219H105.243L104.948 9.91094C104.751 9.88281 104.512 9.86875 104.23 9.85469C103.949 9.84063 103.668 9.82656 103.373 9.8125C103.077 9.8125 102.81 9.79844 102.557 9.79844C102.304 9.79844 102.107 9.79844 101.966 9.79844H99.9414V14.6359H103.274L103.555 13.1594H104.146V16.9563H103.555L103.274 15.4656H99.9414V20.5H102.374C102.754 20.5 103.12 20.5 103.457 20.5C103.795 20.5 104.104 20.4719 104.371 20.4719C104.638 20.4719 104.877 20.4437 105.06 20.4297C105.257 20.4156 105.398 20.3875 105.496 20.3734L106.016 18.0812H106.621L106.438 21.3437H96.5664V20.8516L96.5805 20.8375ZM90.1117 21.5125C89.0992 21.5125 88.1992 21.3719 87.4117 21.0906C86.6242 20.8094 85.9492 20.4016 85.4148 19.8672C84.8664 19.3328 84.4586 18.6859 84.1773 17.9125C83.8961 17.1391 83.7555 16.2672 83.7555 15.2969C83.7555 14.1859 83.8961 13.2297 84.1773 12.4281C84.4586 11.6125 84.8805 10.9516 85.4289 10.4172C85.9773 9.88281 86.6383 9.48906 87.4398 9.23594C88.2273 8.98281 89.1414 8.84219 90.1539 8.84219C90.5758 8.84219 90.9836 8.84219 91.3492 8.88437C91.7289 8.9125 92.0805 8.94062 92.418 8.99687C92.7555 9.03906 93.0789 9.08125 93.3883 9.15156C93.6977 9.20781 93.993 9.26406 94.2883 9.32031L94.3445 12.0203H93.7398L93.4586 10.4172C93.0226 10.15 92.5305 9.95312 91.968 9.79844C91.3914 9.65781 90.8148 9.5875 90.2242 9.5875C89.507 9.5875 88.8602 9.68594 88.2977 9.88281C87.7352 10.0797 87.257 10.4031 86.8773 10.8391C86.4836 11.2891 86.1883 11.8656 85.9914 12.5969C85.7805 13.3281 85.682 14.2141 85.682 15.2828C85.682 16.2109 85.7805 17.0266 85.9914 17.7156C86.1883 18.4047 86.4836 18.9812 86.8633 19.4453C87.243 19.9094 87.707 20.2469 88.2555 20.4719C88.8039 20.6969 89.4367 20.8094 90.1398 20.8094C90.5195 20.8094 90.8851 20.7812 91.2367 20.7391C91.5883 20.6828 91.9117 20.6266 92.207 20.5281C92.5023 20.4437 92.7695 20.3453 93.0086 20.2328C93.2476 20.1203 93.4445 19.9938 93.5992 19.8813L93.9367 18.0391H94.5273L94.4711 20.95C94.218 21.0203 93.9227 21.1047 93.5852 21.1609C93.2477 21.2313 92.8961 21.3016 92.5305 21.3437C92.1508 21.4 91.757 21.4422 91.3492 21.4703C90.9414 21.4984 90.5195 21.5125 90.1117 21.5125V21.5125ZM82.4898 8.95469V9.44687L81.0555 9.68594L77.1461 13.8484L81.6883 20.5844L83.0242 20.8375V21.3297H79.9164L75.8664 15.1562L74.2914 16.5625V20.5984L76.0633 20.8516V21.3437H70.9305V20.8516L72.5195 20.5984V9.68594L70.9305 9.44687V8.95469H75.8805V9.44687L74.2914 9.68594V15.55L79.8039 9.68594L78.6226 9.44687V8.95469H82.4898V8.95469ZM58.9211 20.8375L60.5101 20.5844V9.68594L58.9211 9.44687V8.95469H68.1883V11.9219H67.5836L67.2883 9.91094C67.0914 9.88281 66.8523 9.86875 66.5711 9.85469C66.2898 9.84063 66.0086 9.82656 65.7133 9.8125C65.418 9.8125 65.1508 9.79844 64.8977 9.79844C64.6445 9.79844 64.4476 9.79844 64.307 9.79844H62.282V14.6359H65.6148L65.8961 13.1594H66.4867V16.9563H65.8961L65.6148 15.4656H62.282V20.5H64.7148C65.0945 20.5 65.4602 20.5 65.7977 20.5C66.1352 20.5 66.4445 20.4719 66.7117 20.4719C66.9789 20.4719 67.218 20.4437 67.4008 20.4297C67.5977 20.4156 67.7383 20.3875 67.8367 20.3734L68.357 18.0812H68.9617L68.7789 21.3437H58.907V20.8516L58.9211 20.8375ZM46.743 21.5125C46.4617 21.5125 46.2086 21.4703 45.9695 21.4C45.7305 21.3297 45.5195 21.2172 45.3367 21.0766L45.2664 19.0797H45.6883L46.1242 19.9094C46.2086 20.0219 46.3211 20.1203 46.4477 20.1625C46.5742 20.2187 46.7008 20.2469 46.8414 20.2469C47.0945 20.2469 47.3336 20.1203 47.5586 19.8531C47.7695 19.5859 47.9805 19.1641 48.1633 18.5594C48.3461 17.9547 48.5289 17.1672 48.6836 16.1828C48.8383 15.1984 48.9789 13.9891 49.1055 12.5406L49.3586 9.68594L47.7695 9.44687V8.95469H57.3461V9.44687L55.757 9.68594V20.5844L57.3461 20.8375V21.3297H52.3961V20.8375L53.9852 20.5844V9.78437H50.2867L50.0336 12.6531C49.907 14.1437 49.7523 15.4375 49.5836 16.5484C49.4148 17.6594 49.2039 18.5734 48.9508 19.3047C48.6977 20.0359 48.3883 20.5844 48.0367 20.95C47.6711 21.3156 47.2492 21.4984 46.7289 21.4984L46.743 21.5125ZM37.2227 10.1922L35.0992 16.1828H39.4023L37.2227 10.1922V10.1922ZM35.2398 20.8375V21.3297H31.1758V20.8375L32.582 20.5844L36.7867 8.85625H38.5305L42.918 20.5844L44.4789 20.8375V21.3297H39.2477V20.8375L40.907 20.5844L39.6836 17.0125H34.8039L33.5664 20.5844L35.2258 20.8375H35.2398Z"/>
    <path fill-rule="evenodd" clip-rule="evenodd" d="M10.8848 26.9969H11.8129C13.2613 24.7188 14.4848 22.2578 15.1738 19.6703C15.2441 19.4172 15.4129 18.4187 15.4551 18.25L14.2879 20.9641C13.866 21.8641 13.3879 22.8063 12.8816 23.6922C12.4598 24.4375 11.6723 25.7875 10.8848 26.9828"/>
    <path fill-rule="evenodd" clip-rule="evenodd" d="M3.43125 23.2594C2.79844 24.9047 2.05312 25.6359 0.45 25.65H0V27H8.52187C8.18437 26.5078 8.00156 25.4953 8.26875 24.8344L8.69062 25.4813C8.26875 24.4406 8.33906 22.1062 9.01406 21.1359L9.32344 21.9234C9.32344 21.15 9.66094 19.4906 10.5328 18.7031L10.6453 19.1812C11.0531 18.1969 11.1937 17.8594 11.8406 17.2969C10.8281 16.9172 10.1109 15.9328 10.1109 14.7938C10.1109 13.3172 12.7828 8.83125 12.7828 8.83125C12.7828 8.83125 15.4547 13.3172 15.4547 14.7938C15.4547 15.0469 15.4125 15.3 15.3562 15.525C15.8203 14.4984 16.6359 14.2734 17.1141 14.1609C17.3812 14.6812 17.4797 15.3562 17.4516 15.8344C17.4094 16.8609 17.1844 17.1 17.0297 17.3672L17.6906 16.8891C18.0422 17.7469 17.6484 18.8016 17.2266 19.5469C17.4937 19.4906 17.6203 19.4625 17.8734 19.2656C17.7609 20.7703 17.5641 21.0375 17.0297 21.825C17.2406 21.8109 17.3953 21.6141 17.5359 21.4734C17.5359 23.1328 17.0016 23.4141 16.3125 24.0328C16.7203 24.0047 16.7625 24.0047 16.8891 23.9766C16.5375 26.4094 15.0047 27 14.1328 27H187.425V25.65H24.8203C23.9344 25.65 23.2594 25.1016 22.9078 24.1734L14.2453 2.60156H11.3484L3.43125 23.2594Z"/>
  </symbol>

  <!-- miniLogo -->
  <symbol id="miniLogo" viewBox="0 0 67 63">
    <path fill-rule="evenodd" clip-rule="evenodd" d="M28.1475 62.9736H30.5695C34.307 57.0967 37.4598 50.7612 39.2555 44.0715C39.4225 43.4255 39.861 40.8413 40.0071 40.4245C40.0071 40.4037 40.0071 40.3828 40.028 40.3828V40.4245L36.9796 47.4477C35.8938 49.7609 34.641 52.2201 33.3256 54.4916C32.219 56.4298 30.1728 59.8893 28.1475 62.9736Z"/>
    <path fill-rule="evenodd" clip-rule="evenodd" d="M8.87387 53.3093C7.24525 57.5607 5.32432 59.4572 1.14838 59.478C1.1275 59.478 0.0417594 59.478 0 59.478V62.9792H22.0281C21.1511 61.7079 20.6918 59.1029 21.3599 57.394L22.4666 59.0612C21.3599 56.3728 21.5687 50.3708 23.2809 47.8492L24.0952 49.8915C24.0952 47.8908 24.9721 43.6186 27.2271 41.5763L27.4986 42.8267C28.5634 40.305 28.9393 39.4297 30.6096 37.9709C27.9997 36.9914 26.1205 34.4697 26.1205 31.5104C26.1205 27.6967 33.0317 16.1303 33.0317 16.1303C33.0317 16.1303 39.9429 27.6967 39.9429 31.5104C39.9429 32.1773 39.8593 32.8025 39.6714 33.4069V33.4486C40.8825 30.7393 42.9913 30.1766 44.2441 29.864C44.9122 31.2187 45.1837 32.9692 45.1419 34.178C45.0166 36.8247 44.4529 37.4707 44.0562 38.1585L45.7683 36.9289C46.687 39.1588 45.6639 41.868 44.5782 43.7853C45.2881 43.6394 45.6013 43.5561 46.2485 43.0559C45.9771 46.9322 45.4551 47.6199 44.077 49.6414C44.6408 49.5997 44.9957 49.1204 45.3716 48.7453C45.3716 53.0175 43.9935 53.7678 42.1979 55.3516C43.2419 55.2891 43.3671 55.2891 43.6803 55.2058C42.7616 61.4995 38.8154 63 36.5604 63H66.5645V59.4988H64.1633C61.8665 59.4988 60.1335 58.0817 59.2148 55.6851L36.8318 0H29.336L8.87387 53.3093Z"/>
  </symbol>

  <!-- selectLanguage -->
  <symbol id="selectLanguage" viewBox="0 0 12 8">
    <path d="M6.72204 6.85272C6.32864 7.26155 5.67429 7.26155 5.28089 6.85272L0.702709 2.09494C0.0913873 1.45963 0.541627 0.401561 1.42329 0.401561L10.5796 0.401562C11.4613 0.401562 11.9115 1.45963 11.3002 2.09494L6.72204 6.85272Z"/>
    <defs>
      <linearGradient id="paint0_linear_637_5313" x1="-1.99854" y1="-3.12437" x2="3.6602" y2="14.1662" gradientUnits="userSpaceOnUse">
        <stop stop-color="#1EA84A"/>
        <stop offset="1" stop-color="white" stop-opacity="0"/>
      </linearGradient>
    </defs>
  </symbol>

  <!-- arrowPopup -->
  <symbol id="arrowPopup" viewBox="0 0 10 23">
    <path d="M9 22L2 11.5L9 1" stroke-width="2" stroke-linecap="round" fill="transparent"/>
  </symbol>

  <!-- phone -->
  <symbol id="phone" viewBox="0 0 21 22">
    <path
      d="M17.3906 18.875C15.6115 18.875 13.8432 18.4375 12.0859 17.5625C10.3286 16.6875 8.75 15.55 7.35 14.15C5.95 12.75 4.8125 11.1714 3.9375 9.41406C3.0625 7.65677 2.625 5.88854 2.625 4.10938C2.625 3.83229 2.71979 3.59896 2.90938 3.40938C3.09896 3.21979 3.33229 3.125 3.60938 3.125H6.67188C6.87604 3.125 7.05469 3.19427 7.20781 3.33281C7.36094 3.47135 7.45937 3.65729 7.50312 3.89062L8.09375 6.64688C8.12292 6.85104 8.11927 7.03698 8.08281 7.20469C8.04635 7.3724 7.96979 7.51458 7.85313 7.63125L5.66562 9.84063C6.48229 11.1969 7.3974 12.3781 8.41094 13.3844C9.42448 14.3906 10.5729 15.2437 11.8562 15.9437L13.9344 13.8C14.0802 13.6396 14.2479 13.5266 14.4375 13.4609C14.6271 13.3953 14.8167 13.3844 15.0062 13.4281L17.6094 13.9969C17.8281 14.0406 18.0104 14.15 18.1562 14.325C18.3021 14.5 18.375 14.7042 18.375 14.9375V17.8906C18.375 18.1677 18.2802 18.401 18.0906 18.5906C17.901 18.7802 17.6677 18.875 17.3906 18.875ZM5.00937 8.6375L6.78125 6.84375L6.27813 4.4375H3.9375C3.9375 5.00625 4.025 5.62969 4.2 6.30781C4.375 6.98594 4.64479 7.7625 5.00937 8.6375ZM13.0813 16.5781C13.6792 16.8552 14.3281 17.0812 15.0281 17.2562C15.7281 17.4312 16.4062 17.5333 17.0625 17.5625V15.2219L14.8094 14.7625L13.0813 16.5781Z"
      fill="#D3DEDF" />
  </symbol>

  <!-- mail -->
  <symbol id="mail" viewBox="0 0 21 22">
    <path
      d="M3.35333 18C2.98 18 2.66111 17.8678 2.39667 17.6033C2.13222 17.3389 2 17.02 2 16.6467V5.35333C2 4.98 2.13222 4.66111 2.39667 4.39667C2.66111 4.13222 2.98 4 3.35333 4H18.38C18.7533 4 19.0722 4.13222 19.3367 4.39667C19.6011 4.66111 19.7333 4.98 19.7333 5.35333V16.6467C19.7333 17.02 19.6011 17.3389 19.3367 17.6033C19.0722 17.8678 18.7533 18 18.38 18H3.35333ZM10.8667 11.14L3.05 5.98333V16.6467C3.05 16.74 3.07722 16.8139 3.13167 16.8683C3.18611 16.9228 3.26 16.95 3.35333 16.95H18.38C18.4733 16.95 18.5472 16.9228 18.6017 16.8683C18.6561 16.8139 18.6833 16.74 18.6833 16.6467V5.98333L10.8667 11.14ZM10.8667 10.02L18.4733 5.05H3.28333L10.8667 10.02ZM3.05 5.98333V5.05V16.6467C3.05 16.74 3.07722 16.8139 3.13167 16.8683C3.18611 16.9228 3.26 16.95 3.35333 16.95H3.05V16.6467V5.98333Z"
      fill="#D3DEDF" />
  </symbol>

  <!-- map -->
  <symbol id="map" viewBox="0 0 21 22">
    <g clip-path="url(#clip0_1097_13052)">
      <path d="M4.59375 19.5312H16.4062" stroke="#D3DEDF" stroke-linecap="round" stroke-linejoin="round" />
      <path
        d="M10.5 11.6562C11.9497 11.6562 13.125 10.481 13.125 9.03125C13.125 7.5815 11.9497 6.40625 10.5 6.40625C9.05025 6.40625 7.875 7.5815 7.875 9.03125C7.875 10.481 9.05025 11.6562 10.5 11.6562Z"
        stroke="#D3DEDF" fill="transparent" stroke-linecap="round" stroke-linejoin="round" />
      <path
        d="M17.0625 9.03125C17.0625 14.9375 10.5 19.5312 10.5 19.5312C10.5 19.5312 3.9375 14.9375 3.9375 9.03125C3.9375 7.29077 4.6289 5.62157 5.85961 4.39086C7.09032 3.16015 8.75952 2.46875 10.5 2.46875C12.2405 2.46875 13.9097 3.16015 15.1404 4.39086C16.3711 5.62157 17.0625 7.29077 17.0625 9.03125V9.03125Z"
        stroke="#D3DEDF" fill="transparent" stroke-linecap="round" stroke-linejoin="round" />
    </g>
    <defs>
      <clipPath id="clip0_1097_13052">
        <rect width="21" height="21" fill="white" transform="translate(0 0.5)" />
      </clipPath>
    </defs>
  </symbol>

  <!-- checkOn -->
  <symbol id="checkOn" viewBox="0 0 20 20">
    <circle cx="8.45005" cy="10.5992" r="8.4" fill="#D3DEDF"/>
    <path fill-rule="evenodd" clip-rule="evenodd" d="M8.86816 13.5371L4.93066 9.75105L6.03316 8.69096L8.86816 11.4169L14.8532 5.66211L15.9557 6.72221L8.86816 13.5371Z" fill="white"/>
  </symbol>

    <!-- closePopup -->
  <symbol id="closePopup" viewBox="0 0 10 10">
    <path
      d="M0.610714 9.78214C0.453572 9.78214 0.296429 9.725 0.182143 9.61071C-0.0607143 9.36786 -0.0607143 8.99643 0.182143 8.75357L8.75357 0.182143C8.99643 -0.0607143 9.36786 -0.0607143 9.61071 0.182143C9.85357 0.425 9.85357 0.796429 9.61071 1.03929L1.03929 9.61071C0.925 9.725 0.767857 9.78214 0.610714 9.78214Z"
      />
    <path
      d="M9.18214 9.78214C9.025 9.78214 8.86786 9.725 8.75357 9.61071L0.182143 1.03929C-0.0607143 0.796429 -0.0607143 0.425 0.182143 0.182143C0.425 -0.0607143 0.796429 -0.0607143 1.03929 0.182143L9.61071 8.75357C9.85357 8.99643 9.85357 9.36786 9.61071 9.61071C9.49643 9.725 9.33929 9.78214 9.18214 9.78214Z"
      />
  </symbol>

    <!-- checkbox -->
  <symbol id="checkbox" viewBox="0 0 17 17">
    <path fill-rule="evenodd" clip-rule="evenodd"
      d="M14.6172 0.625H2.36719C1.40469 0.625 0.617188 1.4125 0.617188 2.375V14.625C0.617188 15.5875 1.40469 16.375 2.36719 16.375H14.6172C15.5797 16.375 16.3672 15.5875 16.3672 14.625V2.375C16.3672 1.4125 15.5797 0.625 14.6172 0.625ZM6.74227 12.8752L2.36727 8.66844L3.59227 7.49055L6.74227 10.5194L13.3923 4.12517L14.6173 5.30305L6.74227 12.8752Z" />
  </symbol>

</svg>