<svg width="188" height="106" viewBox="0 0 188 106" fill="none" xmlns="http://www.w3.org/2000/svg">
<g filter="url(#filter0_b_452_7588)">
<rect width="187.522" height="90" rx="7" fill="#253645"/>
<path d="M81.5041 27.147L52.2698 10.2697C51.6662 9.9238 50.8931 9.89667 50.2454 10.2697L21.0111 27.147C20.7161 27.3199 20.4549 27.5709 20.2718 27.8862C19.7123 28.8527 20.0446 30.0904 21.0111 30.6499L21.6181 30.9992V62.8887L51.2593 80L80.9005 62.8887V31.0026L81.5075 30.6533C81.8026 30.4804 82.0671 30.2294 82.2502 29.9141C82.8097 28.9476 82.4774 27.7099 81.5109 27.1504L81.5041 27.147ZM64.8642 39.0835C65.0473 39.209 65.2542 39.3005 65.4712 39.3514V53.5192L53.2261 46.4489L53.2804 45.7808C53.3007 45.5435 53.2668 45.3095 53.1956 45.0857L64.2844 38.6834L64.8642 39.0835ZM37.044 35.238V22.5623L38.2376 21.8739L50.4082 28.8866L38.2139 35.9129L37.0406 35.2347L37.044 35.238ZM36.2335 34.7701L26.0671 28.9002L36.2335 23.0302V34.7701ZM65.4678 22.5623V34.9125L52.3105 28.7238L64.2369 21.8501L65.4678 22.5589V22.5623ZM51.6595 28.1643V14.5899L63.4264 21.3856L51.6595 28.1677V28.1643ZM50.849 14.5899V28.2084L39.0447 21.4059L50.8558 14.5899H50.849ZM50.849 29.5648V43.207L39.021 36.3774L50.849 29.5614V29.5648ZM50.5336 61.7663L37.4034 54.2008L49.3569 47.3L50.5336 61.7663ZM53.1515 47.3407L65.0338 54.2008L51.9816 61.7222L53.1515 47.3407ZM52.7717 44.3939C52.6632 44.2854 52.5411 44.1837 52.3987 44.1023L52.2665 44.0243L51.6595 43.675V29.9378L63.5485 38.1747L52.7717 44.3973V44.3939ZM66.2783 34.7633V23.0302L76.4447 28.9002L66.2783 34.7633ZM48.7906 46.693L37.0406 53.4752V39.9075L48.7906 46.6896V46.693ZM37.0406 54.9265L50.4082 62.6276L37.0406 70.3287V54.9231V54.9265ZM65.4678 54.8858V70.3728L52.0291 62.6276L65.4678 54.8824V54.8858ZM36.2369 39.4396V53.5226L22.7541 45.7571L34.9755 38.7139L36.2335 39.4396H36.2369ZM22.4285 46.5031L35.7893 54.2008L22.4285 61.9155V46.5031ZM36.1318 54.9367C36.1623 54.9503 36.1996 54.957 36.2369 54.9638V70.3965L22.7982 62.6378L36.1318 54.9401V54.9367ZM50.8558 63.3058V78.8335L37.3933 71.0612L50.8558 63.3058ZM51.6662 63.3465L65.0914 71.0815L51.6662 78.8335V63.3465ZM66.2851 54.9164L79.6899 62.6547L66.2851 70.3931V54.9164ZM66.6615 54.1974L80.0935 46.4557V61.9528L66.6615 54.1974ZM66.2851 53.4785V39.3446C66.4479 39.3073 66.6038 39.2429 66.7564 39.1581L66.8921 39.0801L67.5025 38.7274L79.6967 45.7537L66.2885 53.4819L66.2851 53.4785ZM34.1684 38.2459L22.4285 45.0111V31.4672L34.1684 38.2459ZM80.0901 45.0518L68.3062 38.2629L80.0901 31.4672V45.0518Z" fill="#1EA84A"/>
<path d="M93.5574 35V27.3H94.9874V35H93.5574ZM97.0701 35V27.3H98.2471L103.076 33.229H102.493V27.3H103.912V35H102.735L97.9061 29.071H98.4891V35H97.0701ZM108.362 35.11C107.761 35.11 107.185 35.0257 106.635 34.857C106.085 34.681 105.649 34.4573 105.326 34.186L105.821 33.075C106.129 33.317 106.511 33.5187 106.965 33.68C107.42 33.8413 107.886 33.922 108.362 33.922C108.766 33.922 109.092 33.878 109.341 33.79C109.591 33.702 109.774 33.5847 109.891 33.438C110.009 33.284 110.067 33.1117 110.067 32.921C110.067 32.6863 109.983 32.4993 109.814 32.36C109.646 32.2133 109.426 32.0997 109.154 32.019C108.89 31.931 108.593 31.8503 108.263 31.777C107.941 31.7037 107.614 31.6193 107.284 31.524C106.962 31.4213 106.665 31.293 106.393 31.139C106.129 30.9777 105.913 30.765 105.744 30.501C105.576 30.237 105.491 29.8997 105.491 29.489C105.491 29.071 105.601 28.6897 105.821 28.345C106.049 27.993 106.39 27.7143 106.844 27.509C107.306 27.2963 107.889 27.19 108.593 27.19C109.055 27.19 109.514 27.2487 109.968 27.366C110.423 27.4833 110.819 27.652 111.156 27.872L110.705 28.983C110.361 28.7777 110.005 28.6273 109.638 28.532C109.272 28.4293 108.92 28.378 108.582 28.378C108.186 28.378 107.864 28.4257 107.614 28.521C107.372 28.6163 107.193 28.741 107.075 28.895C106.965 29.049 106.91 29.225 106.91 29.423C106.91 29.6577 106.991 29.8483 107.152 29.995C107.321 30.1343 107.537 30.2443 107.801 30.325C108.073 30.4057 108.373 30.4863 108.703 30.567C109.033 30.6403 109.36 30.7247 109.682 30.82C110.012 30.9153 110.309 31.04 110.573 31.194C110.845 31.348 111.061 31.557 111.222 31.821C111.391 32.085 111.475 32.4187 111.475 32.822C111.475 33.2327 111.362 33.614 111.134 33.966C110.914 34.3107 110.573 34.5893 110.111 34.802C109.649 35.0073 109.066 35.11 108.362 35.11ZM116.204 35.11C115.148 35.11 114.32 34.813 113.718 34.219C113.124 33.625 112.827 32.767 112.827 31.645V27.3H114.257V31.59C114.257 32.382 114.426 32.9577 114.763 33.317C115.108 33.6763 115.592 33.856 116.215 33.856C116.839 33.856 117.319 33.6763 117.656 33.317C117.994 32.9577 118.162 32.382 118.162 31.59V27.3H119.57V31.645C119.57 32.767 119.27 33.625 118.668 34.219C118.074 34.813 117.253 35.11 116.204 35.11ZM121.573 35V27.3H123.003V33.79H127.029V35H121.573ZM127.08 35L130.545 27.3H131.953L135.429 35H133.933L130.952 28.059H131.524L128.554 35H127.08ZM128.675 33.218L129.06 32.096H133.218L133.603 33.218H128.675ZM137.583 35V28.51H135.031V27.3H141.565V28.51H139.013V35H137.583ZM142.638 35V27.3H144.068V35H142.638ZM149.759 35.11C149.158 35.11 148.604 35.011 148.098 34.813C147.592 34.615 147.152 34.34 146.778 33.988C146.404 33.6287 146.115 33.2107 145.909 32.734C145.704 32.25 145.601 31.722 145.601 31.15C145.601 30.578 145.704 30.0537 145.909 29.577C146.115 29.093 146.404 28.675 146.778 28.323C147.152 27.9637 147.592 27.685 148.098 27.487C148.604 27.289 149.154 27.19 149.748 27.19C150.35 27.19 150.9 27.289 151.398 27.487C151.904 27.685 152.344 27.9637 152.718 28.323C153.092 28.675 153.382 29.093 153.587 29.577C153.793 30.0537 153.895 30.578 153.895 31.15C153.895 31.722 153.793 32.25 153.587 32.734C153.382 33.218 153.092 33.636 152.718 33.988C152.344 34.34 151.904 34.615 151.398 34.813C150.9 35.011 150.353 35.11 149.759 35.11ZM149.748 33.856C150.137 33.856 150.496 33.79 150.826 33.658C151.156 33.526 151.442 33.339 151.684 33.097C151.926 32.8477 152.113 32.5617 152.245 32.239C152.385 31.909 152.454 31.546 152.454 31.15C152.454 30.754 152.385 30.3947 152.245 30.072C152.113 29.742 151.926 29.456 151.684 29.214C151.442 28.9647 151.156 28.774 150.826 28.642C150.496 28.51 150.137 28.444 149.748 28.444C149.36 28.444 149 28.51 148.67 28.642C148.348 28.774 148.062 28.9647 147.812 29.214C147.57 29.456 147.38 29.742 147.24 30.072C147.108 30.3947 147.042 30.754 147.042 31.15C147.042 31.5387 147.108 31.898 147.24 32.228C147.38 32.558 147.57 32.8477 147.812 33.097C148.054 33.339 148.34 33.526 148.67 33.658C149 33.79 149.36 33.856 149.748 33.856ZM155.411 35V27.3H156.588L161.417 33.229H160.834V27.3H162.253V35H161.076L156.247 29.071H156.83V35H155.411ZM93.5574 48V40.3H97.1654C98.0894 40.3 98.7934 40.4833 99.2774 40.85C99.7614 41.2093 100.003 41.6933 100.003 42.302C100.003 42.7127 99.9081 43.0647 99.7174 43.358C99.5268 43.644 99.2701 43.8677 98.9474 44.029C98.6321 44.183 98.2874 44.26 97.9134 44.26L98.1114 43.864C98.5441 43.864 98.9328 43.9447 99.2774 44.106C99.6221 44.26 99.8934 44.4873 100.091 44.788C100.297 45.0887 100.399 45.4627 100.399 45.91C100.399 46.57 100.146 47.0833 99.6404 47.45C99.1344 47.8167 98.3828 48 97.3854 48H93.5574ZM94.9874 46.878H97.2974C97.8328 46.878 98.2434 46.79 98.5294 46.614C98.8154 46.438 98.9584 46.1557 98.9584 45.767C98.9584 45.3857 98.8154 45.107 98.5294 44.931C98.2434 44.7477 97.8328 44.656 97.2974 44.656H94.8774V43.545H97.0114C97.5101 43.545 97.8914 43.457 98.1554 43.281C98.4268 43.105 98.5624 42.841 98.5624 42.489C98.5624 42.1297 98.4268 41.862 98.1554 41.686C97.8914 41.51 97.5101 41.422 97.0114 41.422H94.9874V46.878ZM101.926 48V40.3H103.356V46.79H107.382V48H101.926ZM111.979 48.11C111.378 48.11 110.824 48.011 110.318 47.813C109.812 47.615 109.372 47.34 108.998 46.988C108.624 46.6287 108.334 46.2107 108.129 45.734C107.924 45.25 107.821 44.722 107.821 44.15C107.821 43.578 107.924 43.0537 108.129 42.577C108.334 42.093 108.624 41.675 108.998 41.323C109.372 40.9637 109.812 40.685 110.318 40.487C110.824 40.289 111.374 40.19 111.968 40.19C112.569 40.19 113.119 40.289 113.618 40.487C114.124 40.685 114.564 40.9637 114.938 41.323C115.312 41.675 115.602 42.093 115.807 42.577C116.012 43.0537 116.115 43.578 116.115 44.15C116.115 44.722 116.012 45.25 115.807 45.734C115.602 46.218 115.312 46.636 114.938 46.988C114.564 47.34 114.124 47.615 113.618 47.813C113.119 48.011 112.573 48.11 111.979 48.11ZM111.968 46.856C112.357 46.856 112.716 46.79 113.046 46.658C113.376 46.526 113.662 46.339 113.904 46.097C114.146 45.8477 114.333 45.5617 114.465 45.239C114.604 44.909 114.674 44.546 114.674 44.15C114.674 43.754 114.604 43.3947 114.465 43.072C114.333 42.742 114.146 42.456 113.904 42.214C113.662 41.9647 113.376 41.774 113.046 41.642C112.716 41.51 112.357 41.444 111.968 41.444C111.579 41.444 111.22 41.51 110.89 41.642C110.567 41.774 110.281 41.9647 110.032 42.214C109.79 42.456 109.599 42.742 109.46 43.072C109.328 43.3947 109.262 43.754 109.262 44.15C109.262 44.5387 109.328 44.898 109.46 45.228C109.599 45.558 109.79 45.8477 110.032 46.097C110.274 46.339 110.56 46.526 110.89 46.658C111.22 46.79 111.579 46.856 111.968 46.856ZM119.209 48L116.657 40.3H118.142L120.419 47.263H119.682L122.047 40.3H123.367L125.666 47.263H124.951L127.283 40.3H128.647L126.095 48H124.577L122.476 41.719H122.872L120.738 48H119.209ZM129.812 48V40.3H131.242V48H129.812ZM133.325 48V40.3H134.502L139.331 46.229H138.748V40.3H140.167V48H138.99L134.161 42.071H134.744V48H133.325ZM145.827 48.11C145.226 48.11 144.672 48.0147 144.166 47.824C143.668 47.626 143.231 47.351 142.857 46.999C142.483 46.6397 142.194 46.218 141.988 45.734C141.783 45.25 141.68 44.722 141.68 44.15C141.68 43.578 141.783 43.05 141.988 42.566C142.194 42.082 142.483 41.664 142.857 41.312C143.239 40.9527 143.682 40.6777 144.188 40.487C144.694 40.289 145.248 40.19 145.849 40.19C146.502 40.19 147.089 40.2963 147.609 40.509C148.137 40.7217 148.581 41.0333 148.94 41.444L148.038 42.324C147.738 42.0233 147.411 41.8033 147.059 41.664C146.715 41.5173 146.333 41.444 145.915 41.444C145.512 41.444 145.138 41.51 144.793 41.642C144.449 41.774 144.152 41.961 143.902 42.203C143.653 42.445 143.459 42.731 143.319 43.061C143.187 43.391 143.121 43.754 143.121 44.15C143.121 44.5387 143.187 44.898 143.319 45.228C143.459 45.558 143.653 45.8477 143.902 46.097C144.152 46.339 144.445 46.526 144.782 46.658C145.12 46.79 145.494 46.856 145.904 46.856C146.286 46.856 146.652 46.7973 147.004 46.68C147.364 46.5553 147.705 46.35 148.027 46.064L148.841 47.131C148.438 47.4537 147.969 47.6993 147.433 47.868C146.905 48.0293 146.37 48.11 145.827 48.11ZM147.488 46.944V44.062H148.841V47.131L147.488 46.944ZM93.5574 61V53.3H94.7344L98.1004 58.921H97.4844L100.795 53.3H101.972L101.983 61H100.63L100.619 55.423H100.905L98.0894 60.12H97.4514L94.5914 55.423H94.9214V61H93.5574ZM102.974 61L106.439 53.3H107.847L111.323 61H109.827L106.846 54.059H107.418L104.448 61H102.974ZM104.569 59.218L104.954 58.096H109.112L109.497 59.218H104.569ZM115.759 61.11C115.172 61.11 114.626 61.0147 114.12 60.824C113.621 60.626 113.185 60.351 112.811 59.999C112.444 59.6397 112.158 59.218 111.953 58.734C111.748 58.25 111.645 57.722 111.645 57.15C111.645 56.578 111.748 56.05 111.953 55.566C112.158 55.082 112.448 54.664 112.822 54.312C113.196 53.9527 113.632 53.6777 114.131 53.487C114.63 53.289 115.176 53.19 115.77 53.19C116.401 53.19 116.976 53.3 117.497 53.52C118.018 53.7327 118.458 54.0517 118.817 54.477L117.893 55.346C117.614 55.0453 117.303 54.8217 116.958 54.675C116.613 54.521 116.239 54.444 115.836 54.444C115.433 54.444 115.062 54.51 114.725 54.642C114.395 54.774 114.105 54.961 113.856 55.203C113.614 55.445 113.423 55.731 113.284 56.061C113.152 56.391 113.086 56.754 113.086 57.15C113.086 57.546 113.152 57.909 113.284 58.239C113.423 58.569 113.614 58.855 113.856 59.097C114.105 59.339 114.395 59.526 114.725 59.658C115.062 59.79 115.433 59.856 115.836 59.856C116.239 59.856 116.613 59.7827 116.958 59.636C117.303 59.482 117.614 59.251 117.893 58.943L118.817 59.823C118.458 60.241 118.018 60.56 117.497 60.78C116.976 61 116.397 61.11 115.759 61.11ZM125.599 53.3H127.029V61H125.599V53.3ZM121.617 61H120.187V53.3H121.617V61ZM125.709 57.7H121.496V56.479H125.709V57.7ZM129.093 61V53.3H130.523V61H129.093ZM132.605 61V53.3H133.782L138.611 59.229H138.028V53.3H139.447V61H138.27L133.441 55.071H134.024V61H132.605ZM142.831 56.501H146.659V57.678H142.831V56.501ZM142.941 59.801H147.286V61H141.511V53.3H147.132V54.499H142.941V59.801Z" fill="white"/>
</g>
<path d="M94.3054 105.646C93.9742 105.861 93.5473 105.861 93.216 105.646L79.271 96.5886C78.436 96.0463 78.8201 94.75 79.8157 94.75L107.706 94.75C108.701 94.75 109.085 96.0463 108.25 96.5886L94.3054 105.646Z" fill="#253645"/>
<defs>
<filter id="filter0_b_452_7588" x="-4" y="-4" width="195.521" height="98" filterUnits="userSpaceOnUse" color-interpolation-filters="sRGB">
<feFlood flood-opacity="0" result="BackgroundImageFix"/>
<feGaussianBlur in="BackgroundImageFix" stdDeviation="2"/>
<feComposite in2="SourceAlpha" operator="in" result="effect1_backgroundBlur_452_7588"/>
<feBlend mode="normal" in="SourceGraphic" in2="effect1_backgroundBlur_452_7588" result="shape"/>
</filter>
</defs>
</svg>