<svg xmlns="http://www.w3.org/2000/svg">

  <!-- mainLogo -->
  <symbol id="mainLogo" viewBox="0 0 148 70">
    <path d="M61.5041 17.147L32.2698 0.269685C31.6662 -0.0762029 30.8931 -0.103331 30.2454 0.269685L1.01108 17.147C0.716054 17.3199 0.454942 17.5709 0.271825 17.8862C-0.287699 18.8527 0.0446243 20.0904 1.01108 20.6499L1.61808 20.9992V52.8887L31.2593 70L60.9005 52.8887V21.0026L61.5075 20.6533C61.8026 20.4804 62.0671 20.2294 62.2502 19.9141C62.8097 18.9476 62.4774 17.7099 61.5109 17.1504L61.5041 17.147ZM44.8642 29.0835C45.0473 29.209 45.2542 29.3005 45.4712 29.3514V43.5192L33.2261 36.4489L33.2804 35.7808C33.3007 35.5435 33.2668 35.3095 33.1956 35.0857L44.2844 28.6834L44.8642 29.0835ZM17.044 25.238V12.5623L18.2376 11.8739L30.4082 18.8866L18.2139 25.9129L17.0406 25.2347L17.044 25.238ZM16.2335 24.7701L6.06714 18.9002L16.2335 13.0302V24.7701ZM45.4678 12.5623V24.9125L32.3105 18.7238L44.2369 11.8501L45.4678 12.5589V12.5623ZM31.6595 18.1643V4.58989L43.4264 11.3856L31.6595 18.1677V18.1643ZM30.849 4.58989V18.2084L19.0447 11.4059L30.8558 4.58989H30.849ZM30.849 19.5648V33.207L19.021 26.3774L30.849 19.5614V19.5648ZM30.5336 51.7663L17.4034 44.2008L29.3569 37.3L30.5336 51.7663ZM33.1515 37.3407L45.0338 44.2008L31.9816 51.7222L33.1515 37.3407ZM32.7717 34.3939C32.6632 34.2854 32.5411 34.1837 32.3987 34.1023L32.2665 34.0243L31.6595 33.675V19.9378L43.5485 28.1747L32.7717 34.3973V34.3939ZM46.2783 24.7633V13.0302L56.4447 18.9002L46.2783 24.7633ZM28.7906 36.693L17.0406 43.4752V29.9075L28.7906 36.6896V36.693ZM17.0406 44.9265L30.4082 52.6276L17.0406 60.3287V44.9231V44.9265ZM45.4678 44.8858V60.3728L32.0291 52.6276L45.4678 44.8824V44.8858ZM16.2369 29.4396V43.5226L2.75408 35.7571L14.9755 28.7139L16.2335 29.4396H16.2369ZM2.42854 36.5031L15.7893 44.2008L2.42854 51.9155V36.5031ZM16.1318 44.9367C16.1623 44.9503 16.1996 44.957 16.2369 44.9638V60.3965L2.79816 52.6378L16.1318 44.9401V44.9367ZM30.8558 53.3058V68.8335L17.3933 61.0612L30.8558 53.3058ZM31.6662 53.3465L45.0914 61.0815L31.6662 68.8335V53.3465ZM46.2851 44.9164L59.6899 52.6547L46.2851 60.3931V44.9164ZM46.6615 44.1974L60.0935 36.4557V51.9528L46.6615 44.1974ZM46.2851 43.4785V29.3446C46.4479 29.3073 46.6038 29.2429 46.7564 29.1581L46.8921 29.0801L47.5025 28.7274L59.6967 35.7537L46.2885 43.4819L46.2851 43.4785ZM14.1684 28.2459L2.42854 35.0111V21.4672L14.1684 28.2459ZM60.0901 35.0518L48.3062 28.2629L60.0901 21.4672V35.0518Z" fill="#1EA84A"/>
    <path d="M73.5574 25V17.3H74.9874V25H73.5574ZM77.0701 25V17.3H78.2471L83.0761 23.229H82.4931V17.3H83.9121V25H82.7351L77.9061 19.071H78.4891V25H77.0701ZM88.3624 25.11C87.7611 25.11 87.1854 25.0257 86.6354 24.857C86.0854 24.681 85.6491 24.4573 85.3264 24.186L85.8214 23.075C86.1294 23.317 86.5107 23.5187 86.9654 23.68C87.4201 23.8413 87.8857 23.922 88.3624 23.922C88.7657 23.922 89.0921 23.878 89.3414 23.79C89.5907 23.702 89.7741 23.5847 89.8914 23.438C90.0087 23.284 90.0674 23.1117 90.0674 22.921C90.0674 22.6863 89.9831 22.4993 89.8144 22.36C89.6457 22.2133 89.4257 22.0997 89.1544 22.019C88.8904 21.931 88.5934 21.8503 88.2634 21.777C87.9407 21.7037 87.6144 21.6193 87.2844 21.524C86.9617 21.4213 86.6647 21.293 86.3934 21.139C86.1294 20.9777 85.9131 20.765 85.7444 20.501C85.5757 20.237 85.4914 19.8997 85.4914 19.489C85.4914 19.071 85.6014 18.6897 85.8214 18.345C86.0487 17.993 86.3897 17.7143 86.8444 17.509C87.3064 17.2963 87.8894 17.19 88.5934 17.19C89.0554 17.19 89.5137 17.2487 89.9684 17.366C90.4231 17.4833 90.8191 17.652 91.1564 17.872L90.7054 18.983C90.3607 18.7777 90.0051 18.6273 89.6384 18.532C89.2717 18.4293 88.9197 18.378 88.5824 18.378C88.1864 18.378 87.8637 18.4257 87.6144 18.521C87.3724 18.6163 87.1927 18.741 87.0754 18.895C86.9654 19.049 86.9104 19.225 86.9104 19.423C86.9104 19.6577 86.9911 19.8483 87.1524 19.995C87.3211 20.1343 87.5374 20.2443 87.8014 20.325C88.0727 20.4057 88.3734 20.4863 88.7034 20.567C89.0334 20.6403 89.3597 20.7247 89.6824 20.82C90.0124 20.9153 90.3094 21.04 90.5734 21.194C90.8447 21.348 91.0611 21.557 91.2224 21.821C91.3911 22.085 91.4754 22.4187 91.4754 22.822C91.4754 23.2327 91.3617 23.614 91.1344 23.966C90.9144 24.3107 90.5734 24.5893 90.1114 24.802C89.6494 25.0073 89.0664 25.11 88.3624 25.11ZM96.2044 25.11C95.1484 25.11 94.3197 24.813 93.7184 24.219C93.1244 23.625 92.8274 22.767 92.8274 21.645V17.3H94.2574V21.59C94.2574 22.382 94.426 22.9577 94.7634 23.317C95.108 23.6763 95.592 23.856 96.2154 23.856C96.8387 23.856 97.319 23.6763 97.6564 23.317C97.9937 22.9577 98.1624 22.382 98.1624 21.59V17.3H99.5704V21.645C99.5704 22.767 99.2697 23.625 98.6684 24.219C98.0744 24.813 97.253 25.11 96.2044 25.11ZM101.573 25V17.3H103.003V23.79H107.029V25H101.573ZM107.08 25L110.545 17.3H111.953L115.429 25H113.933L110.952 18.059H111.524L108.554 25H107.08ZM108.675 23.218L109.06 22.096H113.218L113.603 23.218H108.675ZM117.583 25V18.51H115.031V17.3H121.565V18.51H119.013V25H117.583ZM122.638 25V17.3H124.068V25H122.638ZM129.759 25.11C129.158 25.11 128.604 25.011 128.098 24.813C127.592 24.615 127.152 24.34 126.778 23.988C126.404 23.6287 126.115 23.2107 125.909 22.734C125.704 22.25 125.601 21.722 125.601 21.15C125.601 20.578 125.704 20.0537 125.909 19.577C126.115 19.093 126.404 18.675 126.778 18.323C127.152 17.9637 127.592 17.685 128.098 17.487C128.604 17.289 129.154 17.19 129.748 17.19C130.35 17.19 130.9 17.289 131.398 17.487C131.904 17.685 132.344 17.9637 132.718 18.323C133.092 18.675 133.382 19.093 133.587 19.577C133.793 20.0537 133.895 20.578 133.895 21.15C133.895 21.722 133.793 22.25 133.587 22.734C133.382 23.218 133.092 23.636 132.718 23.988C132.344 24.34 131.904 24.615 131.398 24.813C130.9 25.011 130.353 25.11 129.759 25.11ZM129.748 23.856C130.137 23.856 130.496 23.79 130.826 23.658C131.156 23.526 131.442 23.339 131.684 23.097C131.926 22.8477 132.113 22.5617 132.245 22.239C132.385 21.909 132.454 21.546 132.454 21.15C132.454 20.754 132.385 20.3947 132.245 20.072C132.113 19.742 131.926 19.456 131.684 19.214C131.442 18.9647 131.156 18.774 130.826 18.642C130.496 18.51 130.137 18.444 129.748 18.444C129.36 18.444 129 18.51 128.67 18.642C128.348 18.774 128.062 18.9647 127.812 19.214C127.57 19.456 127.38 19.742 127.24 20.072C127.108 20.3947 127.042 20.754 127.042 21.15C127.042 21.5387 127.108 21.898 127.24 22.228C127.38 22.558 127.57 22.8477 127.812 23.097C128.054 23.339 128.34 23.526 128.67 23.658C129 23.79 129.36 23.856 129.748 23.856ZM135.411 25V17.3H136.588L141.417 23.229H140.834V17.3H142.253V25H141.076L136.247 19.071H136.83V25H135.411ZM73.5574 38V30.3H77.1654C78.0894 30.3 78.7934 30.4833 79.2774 30.85C79.7614 31.2093 80.0034 31.6933 80.0034 32.302C80.0034 32.7127 79.9081 33.0647 79.7174 33.358C79.5268 33.644 79.2701 33.8677 78.9474 34.029C78.6321 34.183 78.2874 34.26 77.9134 34.26L78.1114 33.864C78.5441 33.864 78.9328 33.9447 79.2774 34.106C79.6221 34.26 79.8934 34.4873 80.0914 34.788C80.2968 35.0887 80.3994 35.4627 80.3994 35.91C80.3994 36.57 80.1464 37.0833 79.6404 37.45C79.1344 37.8167 78.3828 38 77.3854 38H73.5574ZM74.9874 36.878H77.2974C77.8328 36.878 78.2434 36.79 78.5294 36.614C78.8154 36.438 78.9584 36.1557 78.9584 35.767C78.9584 35.3857 78.8154 35.107 78.5294 34.931C78.2434 34.7477 77.8328 34.656 77.2974 34.656H74.8774V33.545H77.0114C77.5101 33.545 77.8914 33.457 78.1554 33.281C78.4268 33.105 78.5624 32.841 78.5624 32.489C78.5624 32.1297 78.4268 31.862 78.1554 31.686C77.8914 31.51 77.5101 31.422 77.0114 31.422H74.9874V36.878ZM81.9256 38V30.3H83.3556V36.79H87.3816V38H81.9256ZM91.9789 38.11C91.3776 38.11 90.8239 38.011 90.3179 37.813C89.8119 37.615 89.3719 37.34 88.9979 36.988C88.6239 36.6287 88.3342 36.2107 88.1289 35.734C87.9236 35.25 87.8209 34.722 87.8209 34.15C87.8209 33.578 87.9236 33.0537 88.1289 32.577C88.3342 32.093 88.6239 31.675 88.9979 31.323C89.3719 30.9637 89.8119 30.685 90.3179 30.487C90.8239 30.289 91.3739 30.19 91.9679 30.19C92.5692 30.19 93.1192 30.289 93.6179 30.487C94.1239 30.685 94.5639 30.9637 94.9379 31.323C95.3119 31.675 95.6016 32.093 95.8069 32.577C96.0122 33.0537 96.1149 33.578 96.1149 34.15C96.1149 34.722 96.0122 35.25 95.8069 35.734C95.6016 36.218 95.3119 36.636 94.9379 36.988C94.5639 37.34 94.1239 37.615 93.6179 37.813C93.1192 38.011 92.5729 38.11 91.9789 38.11ZM91.9679 36.856C92.3566 36.856 92.7159 36.79 93.0459 36.658C93.3759 36.526 93.6619 36.339 93.9039 36.097C94.1459 35.8477 94.3329 35.5617 94.4649 35.239C94.6042 34.909 94.6739 34.546 94.6739 34.15C94.6739 33.754 94.6042 33.3947 94.4649 33.072C94.3329 32.742 94.1459 32.456 93.9039 32.214C93.6619 31.9647 93.3759 31.774 93.0459 31.642C92.7159 31.51 92.3566 31.444 91.9679 31.444C91.5792 31.444 91.2199 31.51 90.8899 31.642C90.5672 31.774 90.2812 31.9647 90.0319 32.214C89.7899 32.456 89.5992 32.742 89.4599 33.072C89.3279 33.3947 89.2619 33.754 89.2619 34.15C89.2619 34.5387 89.3279 34.898 89.4599 35.228C89.5992 35.558 89.7899 35.8477 90.0319 36.097C90.2739 36.339 90.5599 36.526 90.8899 36.658C91.2199 36.79 91.5792 36.856 91.9679 36.856ZM99.2094 38L96.6574 30.3H98.1424L100.419 37.263H99.6824L102.047 30.3H103.367L105.666 37.263H104.951L107.283 30.3H108.647L106.095 38H104.577L102.476 31.719H102.872L100.738 38H99.2094ZM109.812 38V30.3H111.242V38H109.812ZM113.325 38V30.3H114.502L119.331 36.229H118.748V30.3H120.167V38H118.99L114.161 32.071H114.744V38H113.325ZM125.827 38.11C125.226 38.11 124.672 38.0147 124.166 37.824C123.668 37.626 123.231 37.351 122.857 36.999C122.483 36.6397 122.194 36.218 121.988 35.734C121.783 35.25 121.68 34.722 121.68 34.15C121.68 33.578 121.783 33.05 121.988 32.566C122.194 32.082 122.483 31.664 122.857 31.312C123.239 30.9527 123.682 30.6777 124.188 30.487C124.694 30.289 125.248 30.19 125.849 30.19C126.502 30.19 127.089 30.2963 127.609 30.509C128.137 30.7217 128.581 31.0333 128.94 31.444L128.038 32.324C127.738 32.0233 127.411 31.8033 127.059 31.664C126.715 31.5173 126.333 31.444 125.915 31.444C125.512 31.444 125.138 31.51 124.793 31.642C124.449 31.774 124.152 31.961 123.902 32.203C123.653 32.445 123.459 32.731 123.319 33.061C123.187 33.391 123.121 33.754 123.121 34.15C123.121 34.5387 123.187 34.898 123.319 35.228C123.459 35.558 123.653 35.8477 123.902 36.097C124.152 36.339 124.445 36.526 124.782 36.658C125.12 36.79 125.494 36.856 125.904 36.856C126.286 36.856 126.652 36.7973 127.004 36.68C127.364 36.5553 127.705 36.35 128.027 36.064L128.841 37.131C128.438 37.4537 127.969 37.6993 127.433 37.868C126.905 38.0293 126.37 38.11 125.827 38.11ZM127.488 36.944V34.062H128.841V37.131L127.488 36.944ZM73.5574 51V43.3H74.7344L78.1004 48.921H77.4844L80.7954 43.3H81.9724L81.9834 51H80.6304L80.6194 45.423H80.9054L78.0894 50.12H77.4514L74.5914 45.423H74.9214V51H73.5574ZM82.9743 51L86.4393 43.3H87.8473L91.3233 51H89.8273L86.8463 44.059H87.4183L84.4483 51H82.9743ZM84.5693 49.218L84.9543 48.096H89.1123L89.4973 49.218H84.5693ZM95.7591 51.11C95.1725 51.11 94.6261 51.0147 94.1201 50.824C93.6215 50.626 93.1851 50.351 92.8111 49.999C92.4445 49.6397 92.1585 49.218 91.9531 48.734C91.7478 48.25 91.6451 47.722 91.6451 47.15C91.6451 46.578 91.7478 46.05 91.9531 45.566C92.1585 45.082 92.4481 44.664 92.8221 44.312C93.1961 43.9527 93.6325 43.6777 94.1311 43.487C94.6298 43.289 95.1761 43.19 95.7701 43.19C96.4008 43.19 96.9765 43.3 97.4971 43.52C98.0178 43.7327 98.4578 44.0517 98.8171 44.477L97.8931 45.346C97.6145 45.0453 97.3028 44.8217 96.9581 44.675C96.6135 44.521 96.2395 44.444 95.8361 44.444C95.4328 44.444 95.0625 44.51 94.7251 44.642C94.3951 44.774 94.1055 44.961 93.8561 45.203C93.6141 45.445 93.4235 45.731 93.2841 46.061C93.1521 46.391 93.0861 46.754 93.0861 47.15C93.0861 47.546 93.1521 47.909 93.2841 48.239C93.4235 48.569 93.6141 48.855 93.8561 49.097C94.1055 49.339 94.3951 49.526 94.7251 49.658C95.0625 49.79 95.4328 49.856 95.8361 49.856C96.2395 49.856 96.6135 49.7827 96.9581 49.636C97.3028 49.482 97.6145 49.251 97.8931 48.943L98.8171 49.823C98.4578 50.241 98.0178 50.56 97.4971 50.78C96.9765 51 96.3971 51.11 95.7591 51.11ZM105.599 43.3H107.029V51H105.599V43.3ZM101.617 51H100.187V43.3H101.617V51ZM105.709 47.7H101.496V46.479H105.709V47.7ZM109.093 51V43.3H110.523V51H109.093ZM112.605 51V43.3H113.782L118.611 49.229H118.028V43.3H119.447V51H118.27L113.441 45.071H114.024V51H112.605ZM122.831 46.501H126.659V47.678H122.831V46.501ZM122.941 49.801H127.286V51H121.511V43.3H127.132V44.499H122.941V49.801Z" fill="white"/>
  </symbol>

   <!-- logo -->
  <symbol id="logo" viewBox="0 0 63 70">
    <path d="M61.5041 17.147L32.2698 0.269685C31.6662 -0.0762029 30.8931 -0.103331 30.2454 0.269685L1.01108 17.147C0.716054 17.3199 0.454942 17.5709 0.271825 17.8862C-0.287699 18.8527 0.0446243 20.0904 1.01108 20.6499L1.61808 20.9992V52.8887L31.2593 70L60.9005 52.8887V21.0026L61.5075 20.6533C61.8026 20.4804 62.0671 20.2294 62.2502 19.9141C62.8097 18.9476 62.4774 17.7099 61.5109 17.1504L61.5041 17.147ZM44.8642 29.0835C45.0473 29.209 45.2542 29.3005 45.4712 29.3514V43.5192L33.2261 36.4489L33.2804 35.7808C33.3007 35.5435 33.2668 35.3095 33.1956 35.0857L44.2844 28.6834L44.8642 29.0835ZM17.044 25.238V12.5623L18.2376 11.8739L30.4082 18.8866L18.2139 25.9129L17.0406 25.2347L17.044 25.238ZM16.2335 24.7701L6.06714 18.9002L16.2335 13.0302V24.7701ZM45.4678 12.5623V24.9125L32.3105 18.7238L44.2369 11.8501L45.4678 12.5589V12.5623ZM31.6595 18.1643V4.58989L43.4264 11.3856L31.6595 18.1677V18.1643ZM30.849 4.58989V18.2084L19.0447 11.4059L30.8558 4.58989H30.849ZM30.849 19.5648V33.207L19.021 26.3774L30.849 19.5614V19.5648ZM30.5336 51.7663L17.4034 44.2008L29.3569 37.3L30.5336 51.7663ZM33.1515 37.3407L45.0338 44.2008L31.9816 51.7222L33.1515 37.3407ZM32.7717 34.3939C32.6632 34.2854 32.5411 34.1837 32.3987 34.1023L32.2665 34.0243L31.6595 33.675V19.9378L43.5485 28.1747L32.7717 34.3973V34.3939ZM46.2783 24.7633V13.0302L56.4447 18.9002L46.2783 24.7633ZM28.7906 36.693L17.0406 43.4752V29.9075L28.7906 36.6896V36.693ZM17.0406 44.9265L30.4082 52.6276L17.0406 60.3287V44.9231V44.9265ZM45.4678 44.8858V60.3728L32.0291 52.6276L45.4678 44.8824V44.8858ZM16.2369 29.4396V43.5226L2.75408 35.7571L14.9755 28.7139L16.2335 29.4396H16.2369ZM2.42854 36.5031L15.7893 44.2008L2.42854 51.9155V36.5031ZM16.1318 44.9367C16.1623 44.9503 16.1996 44.957 16.2369 44.9638V60.3965L2.79816 52.6378L16.1318 44.9401V44.9367ZM30.8558 53.3058V68.8335L17.3933 61.0612L30.8558 53.3058ZM31.6662 53.3465L45.0914 61.0815L31.6662 68.8335V53.3465ZM46.2851 44.9164L59.6899 52.6547L46.2851 60.3931V44.9164ZM46.6615 44.1974L60.0935 36.4557V51.9528L46.6615 44.1974ZM46.2851 43.4785V29.3446C46.4479 29.3073 46.6038 29.2429 46.7564 29.1581L46.8921 29.0801L47.5025 28.7274L59.6967 35.7537L46.2885 43.4819L46.2851 43.4785ZM14.1684 28.2459L2.42854 35.0111V21.4672L14.1684 28.2459ZM60.0901 35.0518L48.3062 28.2629L60.0901 21.4672V35.0518Z"/>
  </symbol>

  <!-- buttonWatch -->
  <symbol id="buttonWatch" viewBox="0 0 40 41">
    <path d="M33.25 25.2389C33.5833 25.4313 33.5833 25.9124 33.25 26.1049L21.25 33.0331C20.9167 33.2255 20.5 32.985 20.5 32.6001L20.5 18.7437C20.5 18.3588 20.9167 18.1182 21.25 18.3107L33.25 25.2389Z" fill="#1EA84A" stroke="#1EA84A"/>
    <circle cx="25" cy="25.6719" r="24.5" stroke="#1EA84A"/>
  </symbol>

  <!-- buttonSelect -->
  <symbol id="buttonSelect" viewBox="0 0 12 8">
    <path d="M6.72204 6.85272C6.32864 7.26155 5.67429 7.26155 5.28089 6.85272L0.702709 2.09494C0.0913873 1.45963 0.541627 0.401561 1.42329 0.401561L10.5796 0.401562C11.4613 0.401562 11.9115 1.45963 11.3002 2.09494L6.72204 6.85272Z"/>
    <defs>
      <linearGradient id="paint0_linear_637_5313" x1="-1.99854" y1="-3.12437" x2="3.6602" y2="14.1662" gradientUnits="userSpaceOnUse">
        <stop stop-color="#1EA84A"/>
        <stop offset="1" stop-color="white" stop-opacity="0"/>
      </linearGradient>
    </defs>
  </symbol>

  <!-- popupClose -->
  <symbol id="popupClose" viewBox="0 0 21 21">
    <path d="M5 5L16.2 16.2" stroke-width="1.5" stroke-linecap="round"/>
    <path d="M16.2031 5L5.00313 16.2" stroke-width="1.5" stroke-linecap="round"/>
  </symbol>

  <!-- truck -->
  <symbol id="truck" viewBox="0 0 60 60">
    <path d="M15 40.3125C14.4437 40.3125 13.9 40.4775 13.4375 40.7865C12.9749 41.0955 12.6145 41.5348 12.4016 42.0487C12.1887 42.5626 12.133 43.1281 12.2415 43.6737C12.3501 44.2193 12.6179 44.7204 13.0113 45.1137C13.4046 45.5071 13.9057 45.7749 14.4513 45.8835C14.9969 45.992 15.5624 45.9363 16.0763 45.7234C16.5902 45.5105 17.0295 45.1501 17.3385 44.6875C17.6476 44.225 17.8125 43.6813 17.8125 43.125C17.8125 42.3791 17.5162 41.6637 16.9887 41.1363C16.4613 40.6088 15.7459 40.3125 15 40.3125ZM15 44.0625C14.8146 44.0625 14.6333 44.0075 14.4792 43.9045C14.325 43.8015 14.2048 43.6551 14.1339 43.4838C14.0629 43.3125 14.0443 43.124 14.0805 42.9421C14.1167 42.7602 14.206 42.5932 14.3371 42.4621C14.4682 42.331 14.6352 42.2417 14.8171 42.2055C14.999 42.1693 15.1875 42.1879 15.3588 42.2589C15.5301 42.3298 15.6765 42.45 15.7795 42.6042C15.8825 42.7583 15.9375 42.9396 15.9375 43.125C15.9375 43.3736 15.8387 43.6121 15.6629 43.7879C15.4871 43.9637 15.2486 44.0625 15 44.0625ZM46.875 40.3125C46.3187 40.3125 45.775 40.4775 45.3125 40.7865C44.8499 41.0955 44.4895 41.5348 44.2766 42.0487C44.0637 42.5626 44.008 43.1281 44.1165 43.6737C44.2251 44.2193 44.4929 44.7204 44.8863 45.1137C45.2796 45.5071 45.7807 45.7749 46.3263 45.8835C46.8719 45.992 47.4374 45.9363 47.9513 45.7234C48.4652 45.5105 48.9045 45.1501 49.2135 44.6875C49.5225 44.225 49.6875 43.6813 49.6875 43.125C49.6875 42.3791 49.3912 41.6637 48.8637 41.1363C48.3363 40.6088 47.6209 40.3125 46.875 40.3125ZM46.875 44.0625C46.6896 44.0625 46.5083 44.0075 46.3542 43.9045C46.2 43.8015 46.0798 43.6551 46.0089 43.4838C45.9379 43.3125 45.9193 43.124 45.9555 42.9421C45.9917 42.7602 46.081 42.5932 46.2121 42.4621C46.3432 42.331 46.5102 42.2417 46.6921 42.2055C46.874 42.1693 47.0625 42.1879 47.2338 42.2589C47.4051 42.3298 47.5515 42.45 47.6545 42.6042C47.7575 42.7583 47.8125 42.9396 47.8125 43.125C47.8125 43.3736 47.7137 43.6121 47.5379 43.7879C47.3621 43.9637 47.1236 44.0625 46.875 44.0625Z" fill="#1EA84A"/>
    <path d="M57.1875 39.375V31.875C57.1869 31.7342 57.1545 31.5953 57.0928 31.4687C57.0311 31.3421 56.9417 31.2311 56.8312 31.1438L52.1437 27.3937C51.9797 27.2599 51.7743 27.187 51.5625 27.1875H50.4562L48.4313 16.8281C48.2005 15.7824 47.621 14.8462 46.7879 14.1733C45.9549 13.5003 44.9178 13.1307 43.8469 13.125H38.4375C38.4375 12.8764 38.3387 12.6379 38.1629 12.4621C37.9871 12.2863 37.7486 12.1875 37.5 12.1875H2.8125C2.56386 12.1875 2.3254 12.2863 2.14959 12.4621C1.97377 12.6379 1.875 12.8764 1.875 13.125V40.3125C1.875 40.5611 1.97377 40.7996 2.14959 40.9754C2.3254 41.1512 2.56386 41.25 2.8125 41.25H4.6875V43.125C4.6875 43.3736 4.78627 43.6121 4.96209 43.7879C5.1379 43.9637 5.37636 44.0625 5.625 44.0625H8.5125C8.73666 45.6233 9.51601 47.051 10.7076 48.0837C11.8992 49.1164 13.4232 49.6849 15 49.6849C16.5768 49.6849 18.1008 49.1164 19.2924 48.0837C20.484 47.051 21.2633 45.6233 21.4875 44.0625H40.3875C40.6117 45.6233 41.391 47.051 42.5826 48.0837C43.7742 49.1164 45.2982 49.6849 46.875 49.6849C48.4518 49.6849 49.9758 49.1164 51.1674 48.0837C52.359 47.051 53.1383 45.6233 53.3625 44.0625H57.1875C57.4361 44.0625 57.6746 43.9637 57.8504 43.7879C58.0262 43.6121 58.125 43.3736 58.125 43.125V40.3125C58.125 40.0639 58.0262 39.8254 57.8504 39.6496C57.6746 39.4738 57.4361 39.375 57.1875 39.375ZM38.4375 15H43.8469C44.4863 15.0028 45.106 15.2221 45.6048 15.6222C46.1036 16.0223 46.4522 16.5795 46.5938 17.2031L48.5531 27.1875H38.4375V15ZM8.5125 42.1875H6.5625V41.25H8.70937C8.62397 41.558 8.55821 41.8711 8.5125 42.1875ZM15 47.8125C14.0729 47.8125 13.1666 47.5376 12.3958 47.0225C11.6249 46.5074 11.0241 45.7754 10.6693 44.9188C10.3145 44.0623 10.2217 43.1198 10.4026 42.2105C10.5834 41.3012 11.0299 40.466 11.6854 39.8104C12.341 39.1549 13.1762 38.7084 14.0855 38.5276C14.9948 38.3467 15.9373 38.4395 16.7938 38.7943C17.6504 39.1491 18.3824 39.7499 18.8975 40.5208C19.4126 41.2916 19.6875 42.1979 19.6875 43.125C19.6875 44.3682 19.1936 45.5605 18.3146 46.4396C17.4355 47.3186 16.2432 47.8125 15 47.8125ZM15 36.5625C13.943 36.564 12.9019 36.8204 11.9651 37.31C11.0283 37.7996 10.2234 38.508 9.61875 39.375H3.75V14.0625H36.5625V39.375H20.3813C19.7766 38.508 18.9717 37.7996 18.0349 37.31C17.0981 36.8204 16.057 36.564 15 36.5625ZM40.3875 42.1875H21.4875C21.4418 41.8711 21.376 41.558 21.2906 41.25H40.5938C40.4973 41.5558 40.4283 41.8695 40.3875 42.1875ZM46.875 47.8125C45.6318 47.8125 44.4395 47.3186 43.5604 46.4396C42.6814 45.5605 42.1875 44.3682 42.1875 43.125C42.1831 42.3045 42.4001 41.4981 42.8156 40.7906C42.8156 40.7812 42.8156 40.7812 42.825 40.7812C43.2342 40.0688 43.8242 39.4769 44.5352 39.0654C45.2463 38.6538 46.0534 38.437 46.875 38.437C47.6966 38.437 48.5037 38.6538 49.2148 39.0654C49.9258 39.4769 50.5158 40.0688 50.925 40.7812C50.9344 40.7812 50.9344 40.7812 50.9344 40.7906C51.3499 41.4981 51.5669 42.3045 51.5625 43.125C51.5625 44.3682 51.0686 45.5605 50.1896 46.4396C49.3105 47.3186 48.1182 47.8125 46.875 47.8125ZM46.875 36.5625C45.8183 36.5656 44.7778 36.8228 43.8412 37.3122C42.9047 37.8017 42.0996 38.5092 41.4937 39.375H38.4375V29.0625H51.2344L55.3125 32.325V39.375H52.2563C51.6504 38.5092 50.8453 37.8017 49.9088 37.3122C48.9722 36.8228 47.9317 36.5656 46.875 36.5625ZM56.25 42.1875H53.3625C53.3217 41.8695 53.2527 41.5558 53.1562 41.25H56.25V42.1875Z" fill="url(#paint0_linear_564_8441)"/>
    <path d="M17.8125 26.25H33.75C33.9986 26.25 34.2371 26.1512 34.4129 25.9754C34.5887 25.7996 34.6875 25.5611 34.6875 25.3125V17.8125C34.6875 17.5639 34.5887 17.3254 34.4129 17.1496C34.2371 16.9738 33.9986 16.875 33.75 16.875H17.8125C17.5639 16.875 17.3254 16.9738 17.1496 17.1496C16.9738 17.3254 16.875 17.5639 16.875 17.8125V25.3125C16.875 25.5611 16.9738 25.7996 17.1496 25.9754C17.3254 26.1512 17.5639 26.25 17.8125 26.25ZM18.75 18.75H32.8125V24.375H18.75V18.75Z" fill="#253645"/>
    <path d="M14.0625 16.875H6.5625V18.75H14.0625V16.875Z" fill="#253645"/>
    <path d="M14.0625 20.625H8.4375V22.5H14.0625V20.625Z" fill="#253645"/>
    <path d="M14.0625 24.375H10.3125V26.25H14.0625V24.375Z" fill="#253645"/>
    <defs>
    <linearGradient id="paint0_linear_564_8441" x1="22.1429" y1="31.4286" x2="1.42857" y2="-12.8571" gradientUnits="userSpaceOnUse">
    <stop stop-color="#162532"/>
    <stop offset="1" stop-color="#1EA84A" stop-opacity="0"/>
    </linearGradient>
    </defs>
  </symbol>

  <!-- pack -->
  <symbol id="pack" viewBox="0 0 90 60">
    <g clip-path="url(#clip0_564_8451)">
    <g clip-path="url(#clip1_564_8451)">
    <path fill-rule="evenodd" clip-rule="evenodd" d="M88.9949 18.822C88.9949 18.822 87.3216 18.6162 85.3444 18.6162C83.4177 18.6162 81.7949 18.822 81.7949 18.822V25.252H88.9949V18.822Z" fill="#E4003E"/>
    <path fill-rule="evenodd" clip-rule="evenodd" d="M88.9949 33.998H81.7949V40.531C81.7949 40.531 83.8234 40.7367 85.4455 40.7367C87.0682 40.7367 88.9949 40.4795 88.9949 40.4795V33.998Z" fill="#E4003E"/>
    <path fill-rule="evenodd" clip-rule="evenodd" d="M77.4942 18.8281H68.6208L62.4351 26.6985H59.545V18.8281H51.8887V40.5873H59.545V32.4083H62.3337L68.5703 40.5873H78.0522L68.7732 29.0133L77.4942 18.8281Z" fill="#242265"/>
    <path fill-rule="evenodd" clip-rule="evenodd" d="M23.1858 18.8281H-1V40.5873H6.75772V25.001H15.428V40.5873H23.1858V18.8281Z" fill="#242265"/>
    <path fill-rule="evenodd" clip-rule="evenodd" d="M26.9397 24.5869L25.8242 18.8256C25.8242 18.8256 33.0748 18.2598 37.5875 18.2598C42.1002 18.2598 47.5255 18.8256 47.5255 18.8256C47.5255 18.8256 49.1987 23.2495 49.1987 29.4738C49.1987 35.698 47.4748 40.5849 47.4748 40.5849C47.4748 40.5849 42.303 41.1507 37.5368 41.1507C32.7706 41.1507 25.8242 40.5849 25.8242 40.5849L26.9397 34.8235C26.9397 34.8235 31.8073 35.1836 35.965 35.1836C40.1227 35.1836 41.7452 34.8235 41.7452 34.8235C41.7452 34.8235 41.9481 33.7433 42.0495 32.5087H32.1115V26.9532H42.1002C41.9987 25.5129 41.796 24.6384 41.796 24.6384C41.796 24.6384 38.3987 24.2783 35.5086 24.2783C32.5679 24.2268 26.9397 24.5869 26.9397 24.5869Z" fill="#242265"/>
    </g>
    </g>
    <defs>
    <clipPath id="clip0_564_8451">
    <rect width="90" height="60" fill="white"/>
    </clipPath>
    <clipPath id="clip1_564_8451">
    <rect width="90" height="23.4247" fill="white" transform="translate(-1 18)"/>
    </clipPath>
    </defs>
  </symbol>

  <!-- map -->
  <symbol id="map" viewBox="0 0 16 21">
    <path d="M8.19702 20.25C8.19702 20.25 7.48985 18.4863 6.63622 17.5064C5.78258 16.5266 3.27049 14.7629 3.27049 14.7629L12.7334 14.7629C12.7334 14.7629 10.9289 15.9905 9.56305 17.5064C8.19719 19.0224 8.19702 20.25 8.19702 20.25Z" fill="#1EA84A"/>
    <ellipse cx="8" cy="8.28472" rx="8" ry="8.03472" fill="#1EA84A"/>
    <ellipse cx="8.00033" cy="8.28466" rx="5.65854" ry="5.6831" fill="white"/>
    <ellipse cx="7.99752" cy="8.28197" rx="2.53659" ry="2.5476" fill="#1EA84A"/>
  </symbol>

  <!-- checkbox -->
  <symbol id="checkbox" viewBox="0 0 24 24">
    <path fill-rule="evenodd" clip-rule="evenodd" d="M21.1061 0.75H3.32954C1.93282 0.75 0.790039 1.875 0.790039 3.25V20.75C0.790039 22.125 1.93282 23.25 3.32954 23.25H21.1061C22.5028 23.25 23.6456 22.125 23.6456 20.75V3.25C23.6456 1.875 22.5028 0.75 21.1061 0.75ZM9.6783 18.25L3.32954 12.2404L5.10719 10.5577L9.6783 14.8846L19.3284 5.75L21.1061 7.43269L9.6783 18.25Z"/>
  </symbol>

  <!-- trinagleButton -->
  <symbol id="trinagleButton" viewBox="0 0 10 17">
    <path d="M9.01955 7.67071C9.4406 8.06574 9.4406 8.73425 9.01955 9.12928L1.88109 15.8265C1.24251 16.4257 0.196874 15.9729 0.196874 15.0973L0.196874 1.70274C0.196874 0.827122 1.24251 0.374346 1.88108 0.973452L9.01955 7.67071Z" fill="url(#paint0_linear_856_7835)"/>
    <defs>
    <linearGradient id="paint0_linear_856_7835" x1="-4.50436" y1="18.8" x2="18.4345" y2="11.1002" gradientUnits="userSpaceOnUse">
    <stop stop-color="#1EA84A"/>
    <stop offset="1" stop-color="white" stop-opacity="0"/>
    </linearGradient>
    </defs>
  </symbol>

  <!-- sliderButton -->
  <symbol id="sliderButton" viewBox="0 0 28 28">
    <path d="M17.9287 23.575C17.6937 23.575 17.4979 23.4846 17.3315 23.314L9.31329 14.7704C9.0979 14.5495 9 14.3186 9 14.0375C9 13.7564 9.0979 13.5154 9.31329 13.2946L17.3315 4.77107C17.4979 4.59036 17.6937 4.5 17.9287 4.5C18.4084 4.5 18.7902 4.91162 18.7902 5.43367C18.7902 5.67462 18.6923 5.91557 18.5259 6.10632L11.0364 14.0375L18.5357 21.9787C18.7021 22.1695 18.8 22.4004 18.8 22.6413C18.8 23.1634 18.4182 23.575 17.9385 23.575H17.9287Z"/>
  </symbol>

  <!-- playVideo -->
  <symbol id="playVideo" viewBox="0 0 40 41">
    <path d="M26.25 19.9732C26.5833 20.1657 26.5833 20.6468 26.25 20.8393L17.25 26.0354C16.9167 26.2279 16.5 25.9873 16.5 25.6024L16.5 15.2101C16.5 14.8252 16.9167 14.5846 17.25 14.7771L26.25 19.9732Z"/>
  </symbol>


  <!-- sliderPlay -->
  <symbol id="sliderPlay" viewBox="0 0 42 43">
    <circle cx="20.7717" cy="21.2952" r="15.5217"/>
    <path d="M21 3.14844C10.8527 3.14844 2.625 11.3762 2.625 21.5234C2.625 31.6707 10.8527 39.8984 21 39.8984C31.1473 39.8984 39.375 31.6707 39.375 21.5234C39.375 11.3762 31.1473 3.14844 21 3.14844ZM21 36.7812C12.5754 36.7812 5.74219 29.948 5.74219 21.5234C5.74219 13.0988 12.5754 6.26562 21 6.26562C29.4246 6.26562 36.2578 13.0988 36.2578 21.5234C36.2578 29.948 29.4246 36.7812 21 36.7812Z" fill="white"/>
    <path d="M26.75 20.2289C28.0833 20.9987 28.0833 22.9232 26.75 23.693L18.9688 28.1855C17.6354 28.9553 15.9687 27.993 15.9687 26.4534L15.9687 17.4684C15.9687 15.9288 17.6354 14.9666 18.9687 15.7364L26.75 20.2289Z" fill="white"/>
  </symbol>


  <!-- openPhoto -->
  <symbol id="openPhoto" viewBox="0 0 60 60">
    <circle cx="29.6739" cy="29.6739" r="22.1739"/>
    <path d="M39.5833 28.3333H31.6667V20.4167C31.6667 20.1875 31.4792 20 31.25 20H28.75C28.5208 20 28.3333 20.1875 28.3333 20.4167V28.3333H20.4167C20.1875 28.3333 20 28.5208 20 28.75V31.25C20 31.4792 20.1875 31.6667 20.4167 31.6667H28.3333V39.5833C28.3333 39.8125 28.5208 40 28.75 40H31.25C31.4792 40 31.6667 39.8125 31.6667 39.5833V31.6667H39.5833C39.8125 31.6667 40 31.4792 40 31.25V28.75C40 28.5208 39.8125 28.3333 39.5833 28.3333Z" fill="white" fill-opacity="0.4"/>
    <path d="M30 3.75C15.5039 3.75 3.75 15.5039 3.75 30C3.75 44.4961 15.5039 56.25 30 56.25C44.4961 56.25 56.25 44.4961 56.25 30C56.25 15.5039 44.4961 3.75 30 3.75ZM30 51.7969C17.9648 51.7969 8.20312 42.0352 8.20312 30C8.20312 17.9648 17.9648 8.20312 30 8.20312C42.0352 8.20312 51.7969 17.9648 51.7969 30C51.7969 42.0352 42.0352 51.7969 30 51.7969Z" fill="white" fill-opacity="0.7"/>
  </symbol>

  <!-- radioChecked -->
  <symbol id="radioChecked" viewBox="0 0 24 24">
    <rect width="24" height="24" rx="12" stroke="transparent"/>
    <path d="M7.50755 10.7681C6.78169 9.93549 5.51832 9.84896 4.68573 10.5748C3.85314 11.3007 3.7666 12.564 4.49245 13.3966L7.50755 10.7681ZM9.93846 16.6L8.43092 17.9143L9.89592 19.5947L11.4081 17.9566L9.93846 16.6ZM20.2696 8.35656C21.0188 7.54492 20.9682 6.2796 20.1566 5.53039C19.3449 4.78119 18.0796 4.8318 17.3304 5.64344L20.2696 8.35656ZM4.49245 13.3966L8.43092 17.9143L11.446 15.2857L7.50755 10.7681L4.49245 13.3966ZM11.4081 17.9566L20.2696 8.35656L17.3304 5.64344L8.46885 15.2434L11.4081 17.9566Z" fill="white" stroke="transparent"/>
  </symbol>

  <!-- optionBackground -->
  <symbol id="optionBackground" viewBox="0 0 260 157">
    <path
      d="M253.633 0.578797C256.299 -1.0013 259.672 0.920534 259.672 4.01996V153C259.672 155.209 257.881 157 255.672 157H4.26805C0.199649 157 -1.27117 151.633 2.22884 149.559L253.633 0.578797Z" />
    <path
      d="M259.172 4.01996V153C259.172 154.933 257.605 156.5 255.672 156.5H4.26805C0.708199 156.5 -0.578769 151.804 2.48374 149.989L253.888 1.00894C256.221 -0.373641 259.172 1.30796 259.172 4.01996Z" />
  </symbol>

  <!-- optionTriangle -->
  <symbol id="optionTriangle" viewBox="0 0 42 15">
    <path d="M21.6719 14.4226C21.0531 14.7799 20.2907 14.7799 19.6719 14.4226L1.15521 3.73205C-0.616851 2.70894 0.10901 -4.42035e-06 2.15521 -4.24146e-06L39.1885 -1.00391e-06C41.2347 -8.2502e-07 41.9606 2.70895 40.1885 3.73205L21.6719 14.4226Z"/>
  </symbol>
</svg>